<svg xmlns="http://www.w3.org/2000/svg" viewBox="228.474 349.496 985.583 115.889">
  <path d="M253.66 353.06c-.17.64-.02 1.11.09 2.97.12 1.86.21 3.12.49 6.3.29 3.19.74 5.31.94 9.64.2 4.32.12 6.98.07 11.99-.05 5.01-.07 7.92-.33 13.06-.26 5.13-.53 7.84-.95 12.62-.42 4.78-.67 7.14-1.14 11.29-.47 4.14-.69 6.18-1.2 9.42-.52 3.24-.88 4.67-1.37 6.79-.49 2.12-.72 2.65-1.11 3.8-.38 1.14-.76 1.47-.82 1.93-.07.45.1.61.52.35.42-.27.89-.57 1.58-1.68.68-1.1 1.22-1.69 1.86-3.87.63-2.18.89-3.71 1.33-7.03.45-3.31.51-5.37.89-9.54.37-4.18.61-6.53 1-11.33.38-4.8.66-7.52.94-12.67.29-5.16.32-8.07.47-13.11.16-5.03.31-7.7.3-12.07-.01-4.38-.08-6.56-.34-9.81-.27-3.24-.5-4.56-.96-6.42-.47-1.85-.9-2.33-1.35-2.86-.46-.53-.75-.41-.91.23" stroke="#000" fill="#000"/>
  <path d="M231.92 405.82c.59.34 1.36.4 2.95.63 1.59.23 2.59.39 5 .51 2.4.13 3.97.04 7.04.11 3.07.06 4.92.26 8.31.22 3.39-.04 5.12-.13 8.63-.42 3.51-.29 5.66-.52 8.91-1.04s4.96-.85 7.35-1.56c2.39-.7 3.72-1.41 4.59-1.97.87-.57.77-.84-.25-.86-1.01-.02-2.41.34-4.83.75-2.41.41-4.04.8-7.23 1.29-3.19.49-5.29.87-8.72 1.15-3.44.29-5.11.35-8.44.27-3.33-.08-5.15-.49-8.21-.67-3.06-.18-4.65-.21-7.07-.22-2.42-.02-3.42 0-5.02.15-1.61.15-2.41.28-3.01.61-.6.34-.59.72 0 1.05m64.6-8.41c-.43-.24-.85-.43-2-.25-1.16.18-2.03.15-3.78 1.15-1.75 1-3.02 1.79-4.97 3.85-1.94 2.05-2.97 3.59-4.75 6.42-1.79 2.83-2.87 4.6-4.17 7.72-1.3 3.12-2.09 4.96-2.33 7.88-.24 2.92.06 4.54 1.13 6.72 1.07 2.18 2.08 3.15 4.23 4.2 2.15 1.04 3.66 1.24 6.52 1.01 2.86-.22 4.67-.76 7.78-2.14 3.11-1.38 4.88-2.52 7.76-4.77 2.88-2.25 4.4-3.7 6.62-6.49 2.22-2.78 3.23-4.45 4.47-7.44 1.24-3 1.6-4.68 1.72-7.51.12-2.83-.23-4.34-1.12-6.63-.89-2.29-1.66-3.48-3.32-4.82-1.66-1.35-2.91-1.68-5-1.91-2.09-.22-3.49.16-5.43.78-1.94.63-2.95 1.37-4.27 2.36-1.31.99-1.98 1.92-2.32 2.6-.34.68-.1.92.6.79.71-.13 1.56-.78 2.92-1.42 1.37-.64 2.23-1.23 3.9-1.78s2.78-1.04 4.43-.99c1.65.05 2.55.19 3.82 1.23 1.27 1.03 1.85 2.01 2.53 3.95.69 1.94 1 3.24.89 5.73-.12 2.5-.34 4.02-1.45 6.75-1.11 2.74-2.01 4.35-4.09 6.95-2.07 2.6-3.55 3.98-6.28 6.05-2.73 2.08-4.49 3.08-7.37 4.32-2.88 1.23-4.54 1.55-7.04 1.85-2.49.3-3.69.34-5.42-.37-1.72-.71-2.46-1.41-3.2-3.17-.75-1.75-.85-3.04-.53-5.59.32-2.55.89-4.28 2.15-7.16 1.25-2.88 2.33-4.64 4.11-7.22 1.79-2.58 2.99-3.84 4.8-5.7 1.82-1.86 2.84-2.54 4.27-3.58 1.42-1.04 1.98-1.14 2.84-1.62.87-.49 1.22-.45 1.49-.8.27-.35.29-.71-.14-.95m116.35-6.52c-.18-.43-.45-.78-1.33-1.21-.88-.43-1.5-.85-3.06-.93-1.56-.09-2.69-.03-4.75.52-2.07.55-3.32 1.08-5.57 2.23-2.25 1.14-3.6 1.93-5.68 3.49-2.08 1.57-3.24 2.56-4.73 4.34-1.5 1.79-2.19 2.81-2.75 4.59-.56 1.77-.61 2.68-.05 4.28.55 1.59 1.18 2.38 2.84 3.68 1.66 1.31 2.93 1.86 5.46 2.84 2.53.97 4.19 1.25 7.18 2.03 2.99.79 4.86 1.14 7.76 1.9 2.89.76 4.46 1.07 6.72 1.89 2.26.83 3.26 1.22 4.57 2.22 1.31 1 1.74 1.65 1.97 2.78.22 1.13-.05 1.71-.85 2.87-.8 1.17-1.51 1.79-3.15 2.93-1.63 1.15-2.82 1.8-5.04 2.78-2.22.99-3.62 1.47-6.08 2.14-2.46.67-3.9.95-6.21 1.2-2.31.26-3.46.17-5.32.07-1.87-.1-2.83-.16-4.01-.55-1.19-.39-1.43-.77-1.92-1.4-.5-.64-.45-1.12-.56-1.76-.11-.65.19-1.12.01-1.46-.18-.34-.55-.56-.9-.25-.36.31-.87.89-.89 1.81-.02.92.08 1.79.78 2.79.69 1.01 1.25 1.58 2.71 2.23 1.45.65 2.5.79 4.57 1.02 2.07.24 3.28.33 5.77.15 2.49-.18 4.04-.41 6.69-1.07 2.66-.66 4.16-1.12 6.57-2.22 2.41-1.11 3.72-1.83 5.5-3.3 1.77-1.46 2.55-2.35 3.38-4.02.82-1.66 1.08-2.65.75-4.32-.33-1.67-.92-2.61-2.4-4.01s-2.62-1.95-5.01-2.98c-2.39-1.02-4.01-1.3-6.95-2.13-2.93-.83-4.8-1.18-7.72-2.01-2.93-.82-4.51-1.27-6.91-2.1-2.4-.83-3.58-1.18-5.1-2.06-1.52-.88-2.04-1.3-2.48-2.35-.43-1.04-.31-1.59.29-2.87.6-1.29 1.29-2.1 2.74-3.56 1.44-1.46 2.53-2.37 4.5-3.75 1.96-1.37 3.25-2.1 5.32-3.13 2.07-1.02 3.24-1.45 5.03-1.98 1.79-.52 2.66-.54 3.93-.64 1.28-.1 1.67.12 2.46.16.79.05 1.13.23 1.51.05.39-.18.6-.5.41-.93m19.4 5.81c-.23.38-.12.67-.22 1.69-.09 1.01-.19 1.65-.28 3.38-.08 1.74-.11 2.98-.14 5.3-.03 2.31-.05 3.75-.01 6.27.04 2.51-.08 3.99.19 6.32s.42 3.55 1.16 5.33c.75 1.78 1.34 2.57 2.57 3.57 1.23 1.01 2.02 1.29 3.6 1.45 1.59.16 2.5.04 4.33-.64 1.82-.67 2.85-1.2 4.8-2.72 1.96-1.52 3.04-2.62 4.96-4.87 1.93-2.25 2.94-3.75 4.68-6.37 1.75-2.62 2.71-4.17 4.06-6.72 1.35-2.55 1.79-4.01 2.67-6.04.89-2.03 1.25-2.97 1.76-4.12.52-1.14.68-1.45.81-1.6.12-.14-.12.03-.19.89-.06.86-.14 1.71-.11 3.41.03 1.69.11 2.88.25 5.07.14 2.2.23 3.54.46 5.89.24 2.36.34 3.76.72 5.89.39 2.13.69 3.18 1.22 4.77.52 1.58.84 2.26 1.41 3.17.57.92 1.02 1.19 1.42 1.39.4.21.57.04.6-.37.02-.4-.26-.7-.48-1.66-.22-.96-.32-1.6-.61-3.14-.3-1.55-.59-2.52-.85-4.58-.26-2.05-.32-3.39-.44-5.7s-.05-3.64-.17-5.85c-.13-2.22-.11-3.45-.44-5.21-.33-1.76-.63-2.63-1.22-3.59s-.93-1.24-1.73-1.2c-.8.04-1.33.29-2.27 1.38-.93 1.09-1.35 2.1-2.39 4.08-1.04 1.99-1.48 3.37-2.81 5.84-1.34 2.47-2.17 4.01-3.88 6.51-1.71 2.49-2.82 3.86-4.66 5.96-1.84 2.11-2.84 3.12-4.55 4.56-1.71 1.43-2.55 1.92-3.99 2.62-1.45.7-2.1.88-3.24.88-1.13 0-1.63-.12-2.45-.87-.83-.74-1.22-1.34-1.68-2.86-.45-1.53-.52-2.6-.61-4.77-.09-2.17.07-3.62.14-6.08.08-2.47.18-3.92.22-6.25.03-2.32.09-3.59-.04-5.38s-.29-2.53-.62-3.58c-.32-1.05-.62-1.39-1.02-1.68-.39-.29-.7-.16-.93.23m79.66-3.81c-.44-.24-.87-.28-1.97-.19-1.1.09-1.87-.06-3.54.64s-2.89 1.33-4.81 2.84c-1.92 1.51-2.91 2.51-4.79 4.72-1.88 2.22-3.07 3.66-4.62 6.35-1.55 2.69-2.33 4.35-3.13 7.1-.79 2.74-1.03 4.2-.83 6.63.2 2.42.57 3.62 1.84 5.5s2.52 2.8 4.53 3.91c2 1.11 3.53 1.35 5.49 1.66 1.95.3 3.4.11 4.29-.13.88-.24.88-.61.13-1.06-.75-.44-2.13-.62-3.87-1.18-1.74-.55-3.06-.69-4.81-1.59-1.76-.89-2.88-1.44-3.95-2.88-1.07-1.45-1.35-2.35-1.41-4.36-.05-2.02.32-3.28 1.13-5.72.82-2.44 1.45-4.04 2.95-6.49 1.49-2.45 2.73-3.75 4.53-5.76 1.79-2.02 2.71-2.92 4.43-4.3 1.72-1.38 2.76-1.84 4.15-2.59 1.4-.76 1.94-.77 2.83-1.19.89-.42 1.35-.53 1.63-.92.29-.38.23-.76-.2-.99m37.3-.68c-.44-.33-.97-.66-2.19-.61-1.22.04-2.21.14-3.92.82-1.72.69-2.78 1.18-4.65 2.61-1.87 1.43-2.95 2.47-4.69 4.55-1.74 2.08-2.68 3.4-4 5.84-1.31 2.44-1.96 3.81-2.59 6.36-.63 2.54-.84 4.07-.55 6.37.29 2.31.74 3.44 1.99 5.16 1.25 1.71 2.17 2.43 4.27 3.43 2.09.99 3.46 1.37 6.22 1.55 2.76.19 4.4 0 7.56-.63 3.16-.63 4.89-1.19 8.25-2.51 3.36-1.31 5.21-2.23 8.56-4.08 3.34-1.85 5.08-2.95 8.17-5.17 3.08-2.21 4.63-3.48 7.25-5.91 2.63-2.43 3.94-3.85 5.88-6.23 1.94-2.39 2.78-3.64 3.81-5.71 1.03-2.07 1.33-3.06 1.34-4.63 0-1.58-.37-2.35-1.32-3.24-.95-.89-1.77-1.18-3.43-1.21-1.66-.02-2.81.19-4.87 1.08-2.06.89-3.35 1.68-5.43 3.39-2.09 1.71-3.31 2.91-5 5.18-1.7 2.26-2.59 3.68-3.48 6.14-.89 2.45-1.13 3.86-.98 6.13.15 2.27.45 3.34 1.73 5.21 1.28 1.88 2.36 2.87 4.67 4.18 2.3 1.3 4.13 1.82 6.85 2.36 2.71.53 4.45.44 6.72.3 2.27-.14 3.71-.6 4.62-1 .92-.4.86-.7-.06-.98-.91-.29-2.36-.18-4.49-.43-2.14-.26-3.71-.31-6.19-.84-2.48-.52-4.14-.82-6.21-1.8-2.07-.97-3.04-1.65-4.13-3.07-1.08-1.42-1.28-2.21-1.3-4.03-.02-1.82.28-2.99 1.19-5.07.91-2.08 1.76-3.34 3.36-5.32 1.6-1.98 2.76-3.05 4.64-4.59 1.88-1.55 3.05-2.21 4.76-3.13 1.7-.92 2.58-1.2 3.79-1.47s1.69-.29 2.25.12c.57.42.78.82.57 1.95-.2 1.13-.53 1.91-1.58 3.7-1.05 1.8-1.84 3-3.67 5.3-1.83 2.29-2.98 3.79-5.47 6.18-2.5 2.4-4 3.65-7 5.81-2.99 2.16-4.71 3.23-7.98 4.99-3.27 1.76-5.1 2.62-8.36 3.81-3.25 1.18-4.95 1.6-7.92 2.11-2.97.51-4.47.55-6.94.43-2.48-.12-3.65-.32-5.43-1.03-1.78-.71-2.51-1.21-3.48-2.54-.97-1.33-1.26-2.2-1.39-4.12-.13-1.91.09-3.24.74-5.46.65-2.23 1.25-3.48 2.52-5.67 1.26-2.2 2.18-3.42 3.8-5.29 1.61-1.87 2.62-2.79 4.27-4.07 1.66-1.27 2.58-1.6 4.01-2.32 1.43-.71 2.17-.88 3.15-1.26.99-.38 1.42-.31 1.77-.64.35-.33.43-.68-.01-1m82.99.2c-.29-.35-.63-.51-1.54-.75-.92-.24-1.53-.49-3.05-.45-1.51.04-2.64.15-4.52.63-1.89.48-3.06.88-4.89 1.76-1.84.87-2.87 1.44-4.29 2.63-1.43 1.18-2.13 1.92-2.82 3.27-.69 1.36-.84 2.19-.63 3.52.2 1.32.57 1.94 1.65 3.11 1.08 1.18 2.03 1.76 3.74 2.75 1.71.99 2.77 1.35 4.79 2.21 2.03.85 3.36 1.26 5.35 2.08 1.99.82 3.11 1.29 4.59 2.02s2.15 1 2.8 1.63c.65.63.77.89.46 1.52s-.72 1.01-2 1.62c-1.28.62-2.25.83-4.4 1.46-2.15.63-3.68 1.09-6.36 1.69-2.68.6-4.5.83-7.02 1.32-2.53.48-3.77.72-5.62 1.12-1.84.4-2.9.52-3.61.87-.7.34-.7.61.07.85.76.24 1.83.33 3.75.35 1.92.01 3.21 0 5.84-.27 2.62-.27 4.5-.48 7.29-1.09 2.78-.6 4.36-1.08 6.63-1.93 2.28-.84 3.35-1.21 4.75-2.3 1.4-1.09 1.92-1.89 2.26-3.15.33-1.26.12-1.97-.59-3.15s-1.42-1.69-2.95-2.74c-1.53-1.05-2.7-1.57-4.71-2.51-2.01-.94-3.36-1.35-5.35-2.18-2-.83-2.98-1.2-4.6-1.98-1.62-.79-2.52-1.22-3.51-1.94-.99-.72-1.31-.92-1.46-1.67-.14-.75.07-1.21.72-2.08.64-.88 1.24-1.43 2.52-2.29 1.29-.86 2.24-1.33 3.92-2 1.67-.67 2.77-.93 4.46-1.35 1.7-.43 2.68-.53 4.02-.76 1.34-.22 1.83-.2 2.67-.36.84-.16 1.21-.16 1.54-.46.33-.29.39-.65.1-1m31.04.76c-.54-.33-1.3-.53-2.66-.56-1.36-.02-2.3.02-4.15.44-1.84.42-3.24.77-5.07 1.66-1.83.89-2.67 1.64-4.09 2.8s-2.12 1.74-3.02 2.99c-.9 1.26-1.38 1.89-1.48 3.28-.09 1.39.17 2.29.98 3.67.82 1.38 1.5 2 3.09 3.24 1.6 1.24 2.77 1.84 4.87 2.96 2.1 1.12 3.53 1.64 5.64 2.64 2.1 1 3.24 1.47 4.87 2.37 1.63.91 2.47 1.4 3.28 2.18.82.77.98 1.03.81 1.72-.18.68-.66 1.01-1.67 1.71-1.02.7-1.78 1.1-3.41 1.8-1.63.7-2.75 1.08-4.72 1.69-1.97.6-3.17.98-5.13 1.35-1.96.36-2.98.51-4.66.49-1.67-.03-2.61-.26-3.72-.63-1.11-.37-1.37-.69-1.81-1.23-.44-.55-.28-.91-.38-1.51-.09-.61.13-1.18-.09-1.52-.21-.34-.65-.5-.98-.18-.34.32-.68.93-.69 1.79-.02.86-.02 1.56.6 2.5.62.95 1.1 1.55 2.49 2.21 1.38.67 2.51.98 4.44 1.14 1.94.17 3.09 0 5.25-.31 2.16-.3 3.41-.58 5.54-1.21 2.14-.63 3.37-.99 5.13-1.92 1.77-.92 2.62-1.53 3.71-2.71 1.08-1.18 1.55-1.9 1.72-3.18.16-1.29-.03-1.98-.9-3.26-.86-1.27-1.74-1.93-3.41-3.12-1.67-1.19-2.84-1.71-4.94-2.82-2.1-1.11-3.49-1.68-5.54-2.73-2.04-1.05-3.17-1.56-4.68-2.51-1.5-.95-2.08-1.35-2.83-2.24-.75-.9-.99-1.38-.93-2.23.07-.85.43-1.16 1.27-2.02.83-.85 1.56-1.36 2.89-2.24 1.34-.88 2.12-1.43 3.79-2.16 1.68-.72 2.94-.94 4.58-1.45 1.65-.51 2.45-.73 3.66-1.09 1.2-.37 1.91-.36 2.38-.72s.5-.76-.03-1.08m26.4 33.42c-.42.37-.64.82-1.16 2.06-.52 1.25-.83 2.2-1.44 4.18-.62 1.98-.94 3.23-1.63 5.72-.69 2.5-1.05 4.1-1.81 6.74-.76 2.64-1.37 4.02-1.99 6.46-.62 2.43-.89 3.9-1.09 5.73-.2 1.82-.07 2.42.08 3.38.16.95.47 1.12.71 1.37.24.26.36.17.49-.1.14-.27-.05-.39.17-1.23.21-.84.43-1.29.9-2.97.47-1.69.73-3.08 1.44-5.44.71-2.35 1.3-3.72 2.13-6.34.83-2.61 1.31-4.24 2.02-6.74.71-2.51 1.08-3.76 1.53-5.8.45-2.04.61-3.05.74-4.4.12-1.36.08-1.87-.13-2.39-.22-.53-.54-.59-.96-.23m67.68-28.41c-.34.52-.49 1.12-.7 2.6-.22 1.48-.28 2.51-.37 4.81-.08 2.29-.09 4-.06 6.67.03 2.66.11 4.2.21 6.66.1 2.47.04 3.84.28 5.66.24 1.82.57 2.46.93 3.46.36 1.01.57 1.28.85 1.56.29.28.46.22.59-.15.13-.36.04-.67.05-1.67.01-1-.05-1.56 0-3.33.04-1.78.14-3.1.21-5.54.07-2.44.13-3.99.15-6.66.03-2.67.08-4.39-.03-6.68-.11-2.3-.3-3.32-.52-4.79-.22-1.48-.27-2.05-.58-2.57-.32-.52-.67-.54-1.01-.03m3.16-29.25c.38-.23.68-.75.6-1.14-.08-.39-.56-.76-1-.82-.44-.06-.9.24-1.2.51-.29.27-.35.54-.28.83.06.29.22.5.6.63.38.12.91.22 1.28-.01m15.28 28.78c-.22.57-.19 1.25-.09 2.63s.29 2.3.6 4.27c.3 1.97.58 3.36.94 5.58.35 2.22.55 3.49.84 5.52.3 2.03.31 3.1.63 4.64.32 1.54.38 2.33.96 3.06s1.04.86 1.93.58c.89-.28 1.36-.71 2.52-1.97 1.16-1.27 1.9-2.25 3.27-4.36 1.38-2.1 2.03-3.76 3.6-6.15 1.57-2.39 2.54-3.74 4.24-5.78 1.69-2.05 2.71-3.05 4.23-4.45 1.52-1.41 2.13-2.06 3.37-2.57 1.24-.52 1.79-.5 2.84-.02 1.05.47 1.55 1.08 2.41 2.38.85 1.3 1.19 2.26 1.88 4.14.68 1.87.98 3.08 1.55 5.23.57 2.16.71 3.52 1.3 5.54.59 2.02.93 3.06 1.66 4.57.74 1.51 1.44 2.46 2.02 2.97.58.51.87.34.88-.4 0-.74-.49-1.74-.87-3.31-.38-1.56-.59-2.48-1.02-4.51-.43-2.02-.56-3.37-1.13-5.6-.58-2.23-.88-3.52-1.74-5.55-.86-2.02-1.32-3.13-2.56-4.58-1.25-1.46-2.1-2.16-3.68-2.7-1.57-.54-2.49-.51-4.18 0-1.7.51-2.46 1.15-4.28 2.55-1.83 1.39-2.94 2.36-4.83 4.43-1.9 2.06-2.94 3.5-4.65 5.9-1.71 2.4-2.61 3.95-3.92 6.09-1.31 2.14-1.9 3.18-2.63 4.6-.73 1.43-.82 2.02-1.02 2.51-.2.5-.03.54.03-.03.06-.57.27-1.32.27-2.82.01-1.51-.09-2.63-.24-4.7-.15-2.08-.21-3.4-.52-5.68-.31-2.28-.55-3.74-1.04-5.73-.48-1.98-.86-2.87-1.38-4.17-.51-1.3-.73-1.91-1.17-2.33-.44-.42-.8-.35-1.02.22m111.07.34c-.18.64-.07 1.36.07 2.93.14 1.56.42 2.66.65 4.89.23 2.23.38 3.68.52 6.26.14 2.58.11 4.15.18 6.64.06 2.49-.03 3.86.15 5.82.19 1.96.24 2.9.77 3.98s1.01 1.44 1.89 1.43c.87-.02 1.47-.37 2.48-1.5 1.02-1.13 1.51-2.12 2.59-4.17 1.08-2.04 1.57-3.54 2.8-6.05 1.24-2.51 1.91-4.07 3.39-6.49 1.47-2.43 2.4-3.74 3.98-5.64 1.57-1.9 2.47-2.77 3.89-3.87s2.13-1.39 3.2-1.63c1.07-.24 1.5-.21 2.16.42.66.63.8 1.22 1.16 2.73.35 1.51.46 2.7.61 4.82.16 2.13.14 3.52.14 5.8 0 2.27-.28 3.71-.16 5.58.13 1.86.23 2.87.78 3.74.54.88 1.04.92 1.97.62.94-.3 1.45-.79 2.7-2.13 1.25-1.34 2.06-2.49 3.54-4.58 1.47-2.08 2.24-3.67 3.84-5.84 1.6-2.17 2.51-3.26 4.15-5.01 1.64-1.74 2.64-2.62 4.05-3.72 1.4-1.09 1.95-1.55 2.97-1.75 1.02-.2 1.38.01 2.15.75.76.74 1.12 1.34 1.68 2.96.55 1.62.73 2.87 1.09 5.13.37 2.27.51 3.65.73 6.19.22 2.55.13 4.12.36 6.53.24 2.4.3 3.66.82 5.5.51 1.84.98 2.62 1.76 3.69.77 1.06 1.31 1.31 2.11 1.62.8.32 1.49.12 1.88-.06.39-.18.33-.57.09-.82-.25-.24-.82-.05-1.3-.4-.49-.35-.71-.44-1.15-1.35-.44-.91-.77-1.53-1.05-3.21-.29-1.68-.27-2.83-.38-5.17-.1-2.35.03-3.95-.15-6.56-.18-2.61-.26-4.07-.74-6.49-.48-2.43-.73-3.83-1.64-5.64-.92-1.81-1.63-2.54-2.92-3.42-1.3-.89-2.03-1.14-3.56-1.02-1.53.11-2.33.54-4.07 1.6-1.75 1.06-2.79 1.96-4.66 3.7-1.87 1.75-2.89 2.86-4.68 5.02-1.79 2.16-2.83 3.64-4.27 5.79-1.44 2.14-2.1 3.4-2.92 4.94-.81 1.54-.94 2.21-1.16 2.77-.23.56-.11.69.04.03.15-.66.46-1.53.71-3.32.25-1.79.46-3.27.53-5.63.06-2.35.1-3.85-.2-6.14-.29-2.3-.52-3.62-1.27-5.35-.76-1.73-1.29-2.48-2.49-3.3-1.2-.83-1.96-.97-3.52-.83-1.55.15-2.47.44-4.24 1.55-1.76 1.12-2.8 2.04-4.59 4.01-1.8 1.98-2.73 3.38-4.37 5.86-1.64 2.49-2.48 4.03-3.83 6.56-1.34 2.53-1.98 4.02-2.89 6.11-.91 2.08-1.19 3.09-1.65 4.33-.47 1.23-.51 1.64-.67 1.82-.15.18-.13-.01-.11-.93.01-.91.11-1.76.18-3.63.08-1.88.15-3.25.2-5.75.05-2.51.18-4.12.07-6.79-.1-2.67-.22-4.24-.62-6.54-.4-2.31-.83-3.45-1.38-4.98-.56-1.53-.91-2.19-1.38-2.67-.48-.48-.82-.38-1.01.26m84.14 7.71c-.11.71.23 1.51.45 3.17s.36 2.81.65 5.14c.29 2.32.53 4.01.78 6.48.26 2.47.27 3.86.49 5.86.22 2.01.32 2.94.61 4.16.29 1.22.56 1.47.84 1.95.29.48.42.38.59.44.17.06.2-.01.28-.14.08-.13.06-.03.13-.52.06-.49.15-.72.2-1.93.05-1.2.04-2.08.06-4.1.01-2.02.17-3.45 0-5.99s-.39-4.32-.86-6.71c-.46-2.39-.82-3.61-1.46-5.25-.65-1.63-1.21-2.41-1.76-2.92-.55-.51-.89-.34-1 .36m-3.43-32.82c-.34.24-.47.54-.49.96-.03.42.05.83.36 1.14.32.31.77.5 1.21.41.44-.09.79-.52 1.01-.87.22-.35.12-.6.1-.87-.02-.27 0-.28-.19-.48-.2-.2-.38-.47-.78-.53-.4-.06-.88 0-1.22.24m24.71 31.67c-.16.57.01 1.22.18 2.52.17 1.3.41 2.16.66 4 .26 1.85.41 3.06.62 5.24.22 2.17.28 3.53.46 5.63.18 2.11.26 3.21.44 4.91.18 1.69.1 2.51.47 3.57.36 1.07.69 1.61 1.35 1.73.66.13 1.04-.15 1.95-1.1.92-.95 1.45-1.72 2.62-3.64 1.17-1.92 1.79-3.41 3.23-5.96 1.45-2.54 2.27-4.23 3.98-6.76 1.71-2.53 2.84-3.83 4.59-5.88 1.75-2.04 2.59-3.08 4.14-4.34 1.55-1.25 2.32-1.56 3.6-1.93 1.28-.37 1.88-.3 2.8.08.92.37 1.21.68 1.8 1.78.6 1.11.79 1.97 1.18 3.75.39 1.78.5 2.99.76 5.17.27 2.18.29 3.47.57 5.72.29 2.24.34 3.49.85 5.49s.8 3.04 1.7 4.51c.91 1.46 1.57 2.08 2.84 2.81 1.28.73 1.97.89 3.55.83 1.57-.06 2.51-.27 4.31-1.13 1.8-.86 2.82-1.6 4.69-3.16 1.86-1.57 2.79-2.67 4.62-4.66 1.83-2 2.91-3.23 4.52-5.32 1.61-2.09 2.47-3.45 3.52-5.11 1.05-1.66 1.3-2.54 1.73-3.19.43-.65.48-.65.41-.07-.06.58-.45 1.3-.74 2.96-.3 1.65-.55 3.05-.73 5.31-.18 2.25-.27 3.71-.15 5.95.11 2.25.17 3.55.73 5.26.56 1.71.92 2.36 2.07 3.32 1.14.95 2 1.34 3.65 1.46 1.65.11 2.69-.1 4.58-.89 1.89-.79 2.95-1.48 4.87-3.08 1.92-1.61 2.92-2.75 4.72-4.94 1.81-2.2 2.83-3.6 4.32-6.04 1.5-2.43 2.25-4.02 3.17-6.12.93-2.1 1.19-3.31 1.45-4.37.27-1.07.13-1.3-.12-.94-.24.35-.72 1.01-1.11 2.72-.39 1.71-.76 3.26-.84 5.82-.09 2.57.01 4.34.41 7.02.4 2.67.7 4.13 1.58 6.36.89 2.22 1.51 3.31 2.85 4.77 1.34 1.45 2.34 1.89 3.84 2.51 1.51.62 2.42.66 3.68.59 1.25-.08 2.11-.58 2.59-.96.49-.39.34-.76-.17-.97-.51-.2-1.32.09-2.37-.05-1.04-.14-1.68-.12-2.86-.65-1.18-.52-2-.74-3.02-1.96-1.03-1.22-1.51-2.14-2.11-4.14-.6-2-.73-3.35-.9-5.85-.18-2.49.04-4.14.03-6.61-.01-2.47.11-3.95-.07-5.72-.18-1.77-.28-2.56-.83-3.12-.56-.55-1.04-.51-1.95.34-.9.86-1.41 1.99-2.56 3.94-1.15 1.95-1.73 3.52-3.19 5.84-1.46 2.31-2.42 3.65-4.1 5.72-1.69 2.06-2.63 3.12-4.32 4.62-1.69 1.49-2.61 2.05-4.12 2.85-1.51.79-2.25 1.04-3.43 1.14-1.18.09-1.79-.05-2.49-.68-.7-.62-.83-1.02-1.02-2.46-.18-1.43-.02-2.63.11-4.72s.42-3.49.54-5.73c.13-2.23.27-3.65.1-5.44-.18-1.8-.3-2.72-.96-3.54-.66-.82-1.28-1.01-2.35-.57-1.07.43-1.65 1.22-3 2.74-1.35 1.51-2.12 2.85-3.75 4.85-1.63 2-2.65 3.22-4.41 5.14-1.75 1.92-2.67 2.95-4.35 4.44-1.68 1.49-2.57 2.15-4.03 3.02-1.45.88-2.13 1.16-3.25 1.36-1.12.2-1.51.15-2.35-.37-.84-.52-1.25-.99-1.85-2.23-.6-1.24-.81-2.13-1.15-3.97-.34-1.84-.36-3.04-.56-5.24-.19-2.2-.13-3.52-.41-5.78-.28-2.26-.39-3.57-1-5.53-.61-1.96-1.03-2.96-2.04-4.27-1.01-1.3-1.63-1.75-3.02-2.26-1.39-.51-2.24-.62-3.93-.28-1.69.35-2.65.73-4.51 2.01-1.86 1.29-2.86 2.31-4.78 4.41-1.91 2.1-2.95 3.53-4.81 6.09-1.85 2.56-2.91 4.18-4.47 6.72-1.56 2.55-2.32 4-3.32 6.02-1 2.02-1.33 2.93-1.66 4.07-.34 1.15-.11 1.6-.02 1.65.09.06.32-.39.45-1.37.14-.97.21-1.8.23-3.49.02-1.68-.06-2.8-.12-4.94-.07-2.15-.02-3.51-.21-5.76s-.34-3.57-.77-5.49c-.43-1.92-.81-2.85-1.38-4.11-.56-1.27-.96-1.84-1.45-2.21-.49-.38-.84-.23-1 .34m123.57-35.72c-.16.47-.06.66.03 2.05.08 1.4.04 2.35.41 4.93.37 2.57.92 4.34 1.44 7.95.51 3.62.78 5.92 1.14 10.14.36 4.21.49 6.73.67 10.92.18 4.2.22 6.37.25 10.04.03 3.68-.14 5.44-.08 8.33.05 2.9.19 4.18.36 6.16.17 1.98.23 2.77.48 3.76.26.99.51 1.14.8 1.19.29.04.6-.47.66-.98.06-.5.03-1.32-.37-1.55-.4-.23-1.39-.01-1.64.39s.07 1.17.38 1.61c.32.44.85.75 1.2.6.36-.15.44-.34.57-1.36.13-1.03.11-1.8.08-3.77-.03-1.98-.13-3.22-.23-6.1-.09-2.89-.12-4.64-.24-8.32-.11-3.68-.16-5.86-.33-10.08-.17-4.21-.28-6.74-.53-10.99s-.4-6.58-.71-10.27c-.31-3.68-.41-5.54-.86-8.15-.45-2.62-.87-3.55-1.4-4.91-.53-1.35-.83-1.54-1.25-1.86-.41-.32-.67-.19-.83.27" stroke="#000" fill="#000"/>
  <path d="M1111.08 416.45c.31.22.48.26 1.28.25.8-.02 1.29-.1 2.7-.33 1.42-.22 2.36-.42 4.37-.8 2-.38 3.23-.67 5.65-1.1 2.42-.42 3.74-.63 6.44-1.03 2.71-.39 4.28-.57 7.09-.96 2.81-.38 4.28-.56 6.95-.97 2.68-.41 4.02-.61 6.41-1.08 2.39-.47 3.58-.61 5.54-1.26 1.95-.66 2.95-1.11 4.23-2.01 1.28-.9 1.66-1.47 2.17-2.49.51-1.02.62-1.61.37-2.61-.25-1.01-.63-1.74-1.63-2.4-.99-.66-1.97-.93-3.35-.91-1.39.03-2.11.33-3.57 1.04-1.47.7-2.24 1.26-3.75 2.49-1.51 1.22-2.4 1.96-3.8 3.64-1.4 1.68-2.16 2.69-3.19 4.74-1.04 2.06-1.58 3.27-1.97 5.52-.39 2.25-.43 3.52 0 5.74.44 2.23.89 3.43 2.18 5.39 1.3 1.95 2.26 2.93 4.29 4.38 2.02 1.45 3.36 2.11 5.84 2.87 2.48.75 4.07.83 6.54.92 2.46.09 3.85-.15 5.79-.46 1.93-.31 3.13-.69 3.88-1.1.76-.41.7-.73-.11-.96-.81-.23-2.05-.14-3.93-.19-1.88-.05-3.2.1-5.48-.06-2.28-.17-3.71-.13-5.92-.76-2.2-.63-3.35-1.19-5.11-2.4-1.77-1.21-2.61-2.02-3.71-3.64-1.11-1.62-1.49-2.6-1.83-4.45-.35-1.85-.29-2.89.1-4.8.4-1.9.91-2.95 1.87-4.73.97-1.77 1.67-2.67 2.95-4.15 1.28-1.49 2.12-2.17 3.44-3.28 1.32-1.12 2.04-1.67 3.16-2.3 1.13-.62 1.56-.75 2.47-.84.91-.1 1.44.12 2.09.35.64.24.95.42 1.13.83.17.42.15.69-.26 1.24-.42.56-.69.94-1.82 1.55-1.12.61-1.98.99-3.8 1.52-1.81.52-2.95.69-5.27 1.09-2.32.41-3.68.58-6.33.95-2.65.36-4.12.53-6.93.87-2.81.35-4.39.51-7.12.86-2.73.35-4.06.56-6.52.92s-3.72.52-5.77.89c-2.05.37-3.06.53-4.48.98-1.42.45-1.9.83-2.61 1.27-.71.44-.8.57-.93.93-.14.35-.05.62.26.84m99.82-16.58c-.32-.48-.85-.97-2.01-1.42-1.16-.44-1.94-.77-3.78-.8-1.83-.02-3.17.02-5.4.68-2.22.65-3.66 1.28-5.74 2.61-2.07 1.33-3.16 2.28-4.64 4.02-1.47 1.74-2.14 2.83-2.73 4.67-.59 1.85-.58 2.77-.21 4.54.37 1.78.89 2.69 2.07 4.35 1.18 1.66 2.11 2.44 3.83 3.94 1.71 1.5 2.8 2.19 4.73 3.56 1.93 1.37 3.17 2.02 4.91 3.29 1.74 1.27 2.6 1.88 3.78 3.05 1.17 1.18 1.65 1.75 2.12 2.84.47 1.09.65 1.62.23 2.61-.43.99-.94 1.42-2.36 2.34-1.42.93-2.51 1.38-4.73 2.29-2.23.9-3.7 1.51-6.4 2.24-2.69.72-4.36.97-7.08 1.38-2.72.41-4.36.44-6.53.68-2.16.24-2.96.34-4.29.51-1.33.17-1.88.14-2.36.34-.48.21-.51.42-.05.69.47.26 1.02.44 2.39.64 1.36.2 2.2.37 4.45.38 2.25 0 3.94 0 6.78-.35 2.85-.36 4.6-.66 7.46-1.42 2.85-.75 4.42-1.29 6.8-2.36 2.38-1.07 3.54-1.66 5.1-3 1.55-1.33 2.18-2.14 2.68-3.68.5-1.53.31-2.44-.18-3.99-.48-1.55-1.03-2.28-2.26-3.75-1.23-1.47-2.13-2.2-3.88-3.61-1.76-1.41-3.01-2.09-4.91-3.46-1.9-1.37-2.94-2.03-4.59-3.37-1.65-1.34-2.53-2-3.66-3.33-1.13-1.32-1.64-1.97-1.98-3.29-.35-1.32-.33-1.92.24-3.31.57-1.38 1.24-2.25 2.6-3.63 1.37-1.38 2.36-2.2 4.22-3.28 1.86-1.09 3.15-1.57 5.09-2.15 1.93-.59 3.04-.64 4.59-.78 1.56-.13 2.12.05 3.18.11 1.06.07 1.62.39 2.12.23.51-.16.73-.52.4-1.01" stroke="#000" fill="#000"/>
</svg>
