<svg xmlns="http://www.w3.org/2000/svg" viewBox="235.631 365.747 936.081 103.991">
  <path d="M247.21 369.85c-.25.46-.31 1.1-.32 2.21-.02 1.11.12 1.73.24 3.34.12 1.62.19 2.67.37 4.72.17 2.06.33 3.21.5 5.55.17 2.34.25 3.56.36 6.15.12 2.59.17 3.99.21 6.8.04 2.8 0 4.39-.01 7.24 0 2.85-.03 4.3-.03 7.01s0 4.2.03 6.54.03 3.45.11 5.16c.09 1.71.08 2.39.29 3.38.21.99.4 1.43.78 1.59.37.16.7-.02 1.08-.78.39-.76.93-1.53.84-3.04-.1-1.52-.68-3.67-1.31-4.54-.62-.86-1.41-.74-1.81.22-.41.96-.36 3.13-.2 4.6.15 1.46.64 2.04.98 2.72.35.68.51.85.74.68.24-.17.33-.55.45-1.52.11-.98.09-1.64.13-3.33.05-1.69.07-2.81.1-5.14.02-2.34.02-3.83.04-6.54.02-2.7.02-4.14.04-7 .03-2.85.11-4.45.08-7.28s-.12-4.25-.22-6.86c-.1-2.62-.16-3.85-.28-6.21-.13-2.36-.18-3.52-.35-5.6-.16-2.08-.21-3.18-.46-4.8-.25-1.62-.49-2.24-.79-3.31-.29-1.07-.36-1.64-.68-2.03-.32-.4-.67-.38-.91.07" stroke="#000" fill="#000"/>
  <path d="M238.84 398.47c.29.28.62.4 1.45.56.83.17 1.4.25 2.69.27 1.3.01 2.14-.04 3.8-.2 1.65-.16 2.6-.39 4.47-.59 1.87-.21 2.86-.29 4.86-.43 2-.14 3.2-.14 5.13-.28 1.93-.14 2.87-.27 4.54-.43 1.67-.17 2.48-.23 3.82-.39 1.33-.15 1.96-.24 2.86-.37.91-.14 1.12-.19 1.66-.29.55-.1.74-.08 1.06-.23.31-.16.4-.35.5-.55.1-.2.1-.34 0-.45-.11-.11-.4-.08-.52-.09-.12 0-.05.08-.09.07-.05-.02.08-.08-.13-.13-.21-.05-.4-.09-.93-.11-.52-.03-.79-.04-1.71-.01-.92.03-1.54.06-2.88.14-1.34.09-2.15.16-3.81.27-1.67.11-2.58.18-4.51.27-1.93.09-3.12.06-5.14.18-2.02.11-3.07.21-4.95.38-1.89.17-2.84.31-4.47.45s-2.41.14-3.66.26-1.79.17-2.59.33c-.81.17-1.15.24-1.44.52-.28.27-.3.57-.01.85m38.86-2.17c-.39.24-.68.65-1.11 1.49-.43.85-.69 1.38-1.03 2.73-.33 1.36-.54 2.36-.65 4.07-.1 1.7-.02 2.67.14 4.46.16 1.78.25 2.7.66 4.46.4 1.76.7 2.74 1.37 4.34.66 1.6 1.07 2.33 1.95 3.66.89 1.33 1.36 2 2.48 2.97 1.13.97 1.77 1.4 3.15 1.87 1.38.48 2.25.62 3.74.52 1.48-.09 2.24-.31 3.69-1.01 1.44-.69 2.15-1.26 3.52-2.45 1.38-1.2 2.11-1.93 3.36-3.53 1.25-1.6 1.82-2.61 2.89-4.46 1.06-1.85 1.59-2.92 2.45-4.79.86-1.87 1.31-2.83 1.86-4.57.55-1.74.75-2.75.9-4.12.14-1.38.03-2.08-.19-2.76-.22-.67-.52-.82-.93-.63-.41.19-.8.56-1.14 1.58-.34 1.03-.48 1.93-.55 3.56-.06 1.62.06 2.68.22 4.56.15 1.88.3 3 .56 4.84.26 1.83.38 2.73.73 4.32.35 1.59.52 2.38 1.02 3.62.5 1.24.83 1.94 1.48 2.6.66.66 1.37.68 1.8.71.43.02.48-.25.36-.57-.12-.32-.62-.36-.97-1.03-.34-.68-.44-1.21-.75-2.36-.32-1.15-.56-1.87-.81-3.38-.26-1.52-.33-2.4-.48-4.18a80.57 80.57 0 01-.24-4.72c-.05-1.82.04-2.83 0-4.39-.04-1.55-.04-2.37-.19-3.37s-.29-1.39-.56-1.63c-.27-.24-.51-.16-.8.41-.29.57-.33 1.21-.64 2.46s-.36 2.17-.91 3.79-.99 2.51-1.84 4.28c-.86 1.77-1.41 2.81-2.44 4.57-1.03 1.75-1.56 2.71-2.7 4.21-1.14 1.5-1.82 2.17-3.01 3.27-1.2 1.11-1.8 1.63-2.96 2.26-1.17.62-1.72.77-2.89.87-1.16.1-1.84-.02-2.92-.38-1.09-.37-1.59-.65-2.5-1.46-.9-.82-1.28-1.42-2.02-2.62-.75-1.19-1.1-1.88-1.68-3.35-.58-1.47-.86-2.37-1.2-4-.34-1.63-.42-2.49-.49-4.14-.08-1.65-.02-2.53.1-4.11.13-1.57.34-2.48.52-3.76.18-1.28.29-1.78.39-2.65.1-.88.26-1.32.11-1.73-.15-.42-.46-.56-.85-.33m42.58.71c-.24.28-.26.58-.35 1.31-.1.74-.19 1.23-.13 2.37.07 1.14.29 1.95.47 3.34s.29 2.09.44 3.62c.14 1.53.16 2.47.28 4.03.13 1.56.09 2.55.32 3.77.23 1.23.44 1.8.83 2.35.38.54.68.65 1.09.37.41-.27.68-.72.95-1.75.27-1.03.29-1.86.39-3.4.1-1.53.07-2.57.12-4.25.04-1.69.07-2.66.12-4.17.04-1.51.02-2.17.11-3.4.09-1.24.2-1.8.33-2.77s.11-1.43.32-2.07c.21-.65.28-.81.72-1.16.44-.35.77-.46 1.46-.6.69-.15 1.04-.12 1.97-.12.94-.01 1.61.01 2.72.09 1.1.08 1.74.14 2.81.3 1.07.17 1.66.34 2.55.53.88.19 1.25.21 1.85.41.59.2.78.36 1.12.59.34.22.32.34.57.54.24.2.4.45.67.45.27.01.56-.15.67-.41.1-.26.01-.51-.16-.89s-.26-.59-.68-.99c-.43-.4-.76-.66-1.45-1.02-.7-.35-1.08-.42-2.02-.74s-1.52-.59-2.68-.85c-1.15-.25-1.87-.34-3.09-.41-1.23-.07-1.93-.06-3.02.06s-1.53.17-2.43.52c-.9.34-1.4.59-2.05 1.2-.65.62-.84 1.03-1.19 1.88-.35.85-.36 1.33-.56 2.38-.2 1.05-.26 1.61-.43 2.87-.16 1.26-.2 1.92-.39 3.43-.19 1.52-.36 2.46-.55 4.16-.19 1.7-.38 2.77-.4 4.33-.02 1.55.1 2.42.31 3.45.21 1.02.44 1.43.73 1.68s.53.12.73-.44c.21-.56.27-1.13.29-2.34.02-1.22-.08-2.19-.17-3.75-.1-1.57-.2-2.52-.32-4.07-.11-1.56-.13-2.31-.28-3.72-.15-1.41-.27-2.22-.48-3.34-.21-1.13-.31-1.57-.57-2.27-.25-.69-.38-1-.69-1.22-.31-.22-.61-.17-.85.12m32.57.76c-.28-.07-.56-.07-.96.25-.41.32-.7.54-1.06 1.37-.36.83-.52 1.49-.74 2.77-.23 1.29-.26 2.08-.38 3.65-.13 1.57-.15 2.53-.25 4.22-.11 1.68-.19 2.56-.28 4.21-.08 1.64-.13 2.52-.14 4-.02 1.47-.08 2.31.07 3.36.14 1.05.31 1.5.67 1.9.35.39.67.42 1.1.05.43-.36.72-.77 1.07-1.88.35-1.11.46-2.02.68-3.67.22-1.65.14-2.74.42-4.56.28-1.83.47-2.83.97-4.58.5-1.76.87-2.66 1.52-4.2s.96-2.29 1.74-3.52 1.24-1.76 2.16-2.65c.92-.89 1.46-1.24 2.45-1.79 1-.54 1.52-.75 2.54-.92 1.03-.18 1.57-.16 2.6.05 1.03.2 1.57.42 2.57.97.99.56 1.48.93 2.41 1.82.93.89 1.37 1.43 2.25 2.65.87 1.21 1.37 1.94 2.13 3.43.75 1.49 1.04 2.38 1.64 4.02.6 1.63.87 2.45 1.37 4.15.5 1.7.66 2.69 1.13 4.36.47 1.68.72 2.61 1.22 4 .51 1.4.77 2.04 1.32 2.98s1.02 1.45 1.43 1.72c.42.27.63.12.65-.35.02-.47-.29-1-.56-2.01-.26-1-.4-1.6-.77-2.99-.37-1.39-.64-2.29-1.09-3.95-.45-1.67-.66-2.65-1.18-4.39-.51-1.74-.76-2.58-1.38-4.3-.61-1.72-.87-2.69-1.69-4.3-.81-1.61-1.38-2.41-2.37-3.73-1-1.33-1.5-1.9-2.6-2.9s-1.67-1.45-2.89-2.09c-1.22-.65-1.91-.91-3.22-1.13-1.3-.23-2.02-.22-3.31.01s-1.94.49-3.15 1.14c-1.21.64-1.82 1.07-2.89 2.09-1.08 1.02-1.59 1.64-2.49 2.99-.9 1.35-1.25 2.13-2 3.76-.76 1.63-1.16 2.55-1.78 4.39-.61 1.83-.88 2.89-1.3 4.78-.42 1.89-.6 2.99-.81 4.67-.2 1.68-.26 2.58-.21 3.72.05 1.14.22 1.57.46 1.98.25.4.5.4.75.05.26-.34.4-.78.53-1.79.12-1.02.05-1.85.1-3.29.06-1.44.07-2.3.19-3.91.12-1.61.25-2.49.42-4.15.16-1.66.25-2.64.43-4.16.17-1.53.27-2.27.45-3.46.19-1.2.37-1.78.45-2.53.09-.75-.02-.88-.01-1.22.01-.33.13-.23.06-.45-.08-.22-.16-.56-.44-.64m92.56-6.19c-.02-.41-.21-.87-.74-1.37-.53-.49-1-.73-1.91-1.09-.9-.37-1.46-.56-2.62-.75-1.16-.18-1.85-.25-3.17-.18-1.32.08-2.05.26-3.44.54-1.39.28-2.12.43-3.52.87-1.39.44-2.15.73-3.45 1.33-1.3.61-2 .96-3.05 1.69-1.05.73-1.55 1.12-2.18 1.97-.64.85-.89 1.33-1 2.26-.12.93-.06 1.45.4 2.4.47.95.93 1.5 1.94 2.34 1.01.84 1.71 1.2 3.11 1.88 1.41.67 2.25.89 3.91 1.49 1.66.6 2.63.93 4.39 1.51 1.75.58 2.72.78 4.4 1.39 1.67.6 2.55.9 3.95 1.65 1.41.74 2.08 1.24 3.06 2.07.97.83 1.34 1.25 1.81 2.1.46.85.52 1.27.52 2.15 0 .88-.07 1.38-.52 2.25-.46.87-.82 1.24-1.77 2.1-.94.85-1.61 1.33-2.94 2.16-1.34.84-2.1 1.36-3.75 2.01-1.65.65-2.62.86-4.48 1.26-1.87.4-2.96.59-4.84.74-1.88.16-2.85.14-4.56.03-1.7-.1-2.54-.17-3.97-.54-1.43-.37-2.13-.68-3.19-1.32-1.07-.64-1.46-1.14-2.14-1.88-.69-.75-.85-1.21-1.29-1.85-.44-.65-.59-1.14-.92-1.37-.32-.22-.6-.17-.71.24-.11.42-.13.98.15 1.84.28.85.48 1.49 1.25 2.44s1.34 1.53 2.6 2.31 2.09 1.13 3.71 1.58c1.61.46 2.51.54 4.36.7 1.84.16 2.86.22 4.87.1 2.01-.13 3.15-.31 5.16-.72 2.01-.42 3.07-.65 4.87-1.36 1.8-.71 2.67-1.24 4.15-2.19 1.48-.95 2.19-1.48 3.24-2.57 1.06-1.08 1.51-1.66 2.02-2.86s.59-1.92.55-3.14c-.05-1.21-.2-1.8-.76-2.94s-.97-1.71-2.05-2.76c-1.08-1.06-1.85-1.63-3.36-2.5-1.52-.87-2.49-1.19-4.22-1.87-1.73-.68-2.68-.9-4.43-1.51-1.75-.61-2.71-.96-4.32-1.55-1.6-.59-2.42-.82-3.71-1.41s-1.84-.93-2.74-1.53c-.89-.59-1.29-.93-1.73-1.46-.44-.53-.54-.71-.47-1.2.08-.49.28-.72.84-1.25.56-.52 1.01-.81 1.96-1.37.96-.55 1.62-.89 2.83-1.41 1.2-.53 1.9-.82 3.19-1.22 1.3-.4 2.01-.53 3.29-.77 1.27-.25 1.95-.42 3.09-.47 1.15-.05 1.68.06 2.65.23.98.18 1.44.41 2.22.63.79.23 1.13.32 1.7.49.56.16.79.41 1.14.35.35-.07.65-.28.62-.69m9.89 4.71c-.27.3-.37.67-.47 1.47-.09.8-.11 1.27-.01 2.54.11 1.28.31 2.11.53 3.82.22 1.72.38 2.69.57 4.76.2 2.07.31 3.25.41 5.59.1 2.35.11 3.64.11 6.13 0 2.49-.04 3.79-.12 6.32-.08 2.54-.22 3.88-.27 6.34-.05 2.46-.05 3.84.03 5.97s.25 3.12.37 4.68c.12 1.57.08 2.2.24 3.12.16.92.31 1.29.57 1.5.26.2.61.01.74-.47.12-.47.06-.94-.1-1.92-.17-.98-.35-1.58-.73-2.98s-.69-2.22-1.17-4c-.49-1.77-.8-2.81-1.25-4.86-.45-2.05-.62-3.16-1.01-5.37s-.64-3.35-.94-5.69c-.31-2.35-.46-3.61-.58-6.03-.13-2.41-.13-3.68-.04-6.04.1-2.37.15-3.54.51-5.78.35-2.25.59-3.38 1.27-5.45.67-2.06 1.15-3.1 2.1-4.86.96-1.76 1.53-2.58 2.66-3.94 1.12-1.37 1.79-2 2.98-2.91 1.18-.91 1.74-1.27 2.92-1.64 1.18-.37 1.75-.37 2.97-.21 1.21.17 1.92.38 3.11 1.04 1.18.65 1.76 1.11 2.82 2.23 1.06 1.12 1.62 1.9 2.48 3.37.86 1.46 1.3 2.32 1.82 3.96.52 1.63.69 2.54.8 4.19.1 1.65.09 2.54-.3 4.07-.39 1.52-.81 2.25-1.65 3.56-.85 1.32-1.43 1.97-2.58 3-1.15 1.03-1.86 1.46-3.17 2.14-1.31.68-2.05.88-3.38 1.26-1.34.37-2.09.5-3.29.59-1.2.1-1.78-.01-2.71-.12-.94-.12-1.45-.24-1.97-.47-.53-.22-.75-.28-.64-.65.11-.38.27-.57 1.17-1.22.89-.65 1.91-1.16 3.31-2.03 1.39-.86 2.38-1.41 3.66-2.29 1.29-.89 2.28-1.55 2.75-2.14.47-.6.36-.84-.41-.84-.77-.01-1.93.28-3.44.83-1.52.56-2.64.98-4.14 1.95-1.5.97-2.52 1.77-3.37 2.91-.86 1.13-.94 1.79-.9 2.76.04.96.37 1.42 1.09 2.05.72.64 1.37.85 2.51 1.12 1.15.27 1.84.32 3.23.24 1.38-.08 2.21-.21 3.72-.62 1.5-.41 2.31-.65 3.8-1.42 1.48-.78 2.31-1.26 3.62-2.44 1.32-1.18 1.97-1.93 2.94-3.46.96-1.53 1.43-2.41 1.89-4.19.47-1.77.5-2.81.43-4.7-.08-1.89-.26-2.91-.81-4.75-.56-1.85-1.01-2.82-1.97-4.47-.97-1.64-1.61-2.51-2.87-3.78-1.26-1.26-1.99-1.81-3.45-2.54-1.47-.73-2.35-.95-3.88-1.1-1.52-.15-2.28-.07-3.74.37-1.47.44-2.17.84-3.56 1.84-1.4 1-2.13 1.68-3.4 3.16-1.26 1.49-1.88 2.37-2.93 4.26-1.04 1.9-1.55 3.02-2.28 5.22-.73 2.2-.96 3.42-1.35 5.78-.38 2.36-.45 3.56-.57 6.02-.12 2.45-.14 3.76-.03 6.25.11 2.49.29 3.81.59 6.21.31 2.4.56 3.53.92 5.79.37 2.25.49 3.38.9 5.48.42 2.09.73 3.18 1.16 5 .44 1.81.6 2.66 1.01 4.09.4 1.43.53 2.12 1.01 3.05.47.92.9 1.27 1.36 1.59.47.32.69.33.97.02.29-.3.35-.62.46-1.56.11-.95.11-1.6.1-3.16-.01-1.56-.14-2.55-.16-4.66-.02-2.1-.01-3.42.05-5.85.06-2.44.19-3.78.28-6.32.08-2.54.14-3.86.17-6.38.03-2.53.04-3.85-.04-6.24-.07-2.39-.17-3.6-.32-5.71-.16-2.12-.24-3.14-.47-4.88-.23-1.74-.41-2.6-.66-3.84-.26-1.23-.39-1.61-.61-2.34-.22-.74-.23-1.06-.5-1.33-.27-.26-.6-.28-.87.01m32.35 12.89c.02.31.11.56.56.87.44.31.73.51 1.66.67.93.17 1.59.24 2.99.13 1.39-.11 2.33-.26 3.99-.68 1.65-.41 2.56-.79 4.29-1.38 1.72-.6 2.63-.92 4.34-1.6 1.71-.67 2.67-1.04 4.2-1.79 1.53-.76 2.3-1.17 3.47-1.98 1.17-.82 1.67-1.22 2.39-2.1.72-.88 1-1.38 1.19-2.3.19-.91.19-1.43-.23-2.29-.42-.87-.8-1.34-1.85-2.03-1.06-.69-1.82-1.06-3.42-1.41-1.59-.36-2.55-.44-4.56-.36-2.01.07-3.22.21-5.49.73-2.27.51-3.59.87-5.85 1.85-2.26.98-3.43 1.69-5.45 3.05-2.02 1.35-3.06 2.19-4.64 3.73-1.59 1.55-2.35 2.37-3.28 3.99-.94 1.62-1.18 2.56-1.4 4.12-.22 1.57-.24 2.31.3 3.7.53 1.39 1.06 2.1 2.35 3.24 1.3 1.15 2.2 1.72 4.14 2.48 1.95.75 3.2.92 5.59 1.3 2.38.39 3.66.53 6.33.62 2.68.1 4.46.05 7.06-.15 2.59-.2 3.96-.4 5.91-.83 1.96-.43 3.12-.9 3.86-1.31.74-.42.67-.66-.15-.76-.82-.11-2 .13-3.95.22-1.95.09-3.27.16-5.8.23s-4.27.21-6.85.13c-2.57-.08-3.81-.18-6.05-.51-2.23-.33-3.38-.54-5.14-1.15-1.76-.6-2.51-1.04-3.64-1.87-1.14-.83-1.6-1.29-2.03-2.3-.44-1.01-.39-1.52-.16-2.75.24-1.22.45-2.01 1.33-3.37.88-1.36 1.58-2.08 3.07-3.44 1.5-1.37 2.51-2.17 4.41-3.41 1.91-1.23 3.01-1.89 5.12-2.78 2.12-.88 3.35-1.18 5.45-1.64 2.1-.46 3.25-.58 5.06-.65 1.8-.08 2.62.04 3.98.28 1.37.24 1.97.56 2.84.93.87.37 1.19.53 1.51.94.33.4.3.57.12 1.08-.18.51-.39.85-1.03 1.47-.63.61-1.06.95-2.15 1.6-1.1.65-1.84 1-3.31 1.67-1.48.66-2.42 1.02-4.08 1.64-1.67.63-2.59.94-4.27 1.46-1.68.52-2.57.82-4.13 1.15-1.55.33-2.39.37-3.64.51-1.25.13-1.83.08-2.61.15-.78.07-.92.14-1.3.19-.38.05-.38-.08-.59.06-.21.15-.48.35-.46.65m41.95 1.85c.31.19.6.18 1.28.12.68-.07 1.08-.12 2.13-.45 1.04-.34 1.75-.62 3.08-1.21s2.11-1 3.59-1.74 2.28-1.15 3.81-1.95c1.52-.79 2.39-1.17 3.8-2.02 1.41-.86 2.14-1.37 3.25-2.27 1.12-.9 1.63-1.34 2.33-2.24.71-.9.99-1.36 1.19-2.28.21-.93.2-1.51-.17-2.35-.37-.85-.73-1.28-1.68-1.88-.94-.6-1.57-.86-3.06-1.13-1.48-.27-2.42-.36-4.36-.22-1.93.13-3.11.32-5.3.88s-3.43.95-5.65 1.93-3.49 1.62-5.45 2.96c-1.97 1.33-2.94 2.18-4.35 3.72-1.42 1.54-2 2.4-2.74 3.98-.74 1.57-1.02 2.36-.95 3.9.08 1.54.36 2.4 1.32 3.78.95 1.38 1.81 2.05 3.46 3.13 1.65 1.07 2.65 1.53 4.78 2.23 2.14.71 3.46.96 5.89 1.29 2.44.32 3.74.36 6.27.33 2.52-.03 3.82-.16 6.36-.49 2.54-.34 3.88-.6 6.34-1.19s3.7-1 5.97-1.76c2.27-.76 3.39-1.2 5.36-2.04 1.98-.83 2.92-1.27 4.52-2.15 1.6-.87 2.31-1.32 3.48-2.24 1.17-.91 1.72-1.48 2.37-2.32.66-.83.72-1.23.92-1.84.2-.61.16-.93.07-1.21-.1-.28-.31-.31-.55-.19-.23.12-.27.4-.63.8-.35.41-.47.59-1.15 1.22-.67.64-1.14 1.16-2.23 1.96s-1.72 1.23-3.24 2.03c-1.52.8-2.45 1.19-4.37 1.97-1.93.78-3.03 1.2-5.24 1.92-2.21.72-3.41 1.12-5.79 1.68-2.39.57-3.68.83-6.12 1.14-2.44.31-3.69.42-6.09.43-2.4.01-3.64-.08-5.93-.4-2.28-.32-3.51-.58-5.47-1.21-1.97-.62-2.85-1.04-4.33-1.89-1.48-.86-2.23-1.38-3.08-2.39-.85-1.01-1.13-1.54-1.18-2.67-.05-1.13.22-1.7.92-2.97.71-1.26 1.26-2.02 2.6-3.34 1.34-1.33 2.24-2.1 4.09-3.29 1.84-1.19 3.04-1.78 5.13-2.66 2.08-.88 3.26-1.24 5.29-1.74 2.04-.5 3.15-.63 4.89-.77 1.75-.14 2.57-.07 3.84.05 1.26.12 1.75.28 2.47.55.73.27.91.41 1.16.81.24.41.24.68.05 1.22-.2.54-.39.84-1.04 1.48-.64.65-1.14 1.02-2.2 1.77-1.07.75-1.76 1.22-3.13 2-1.37.77-2.21 1.14-3.71 1.88-1.51.73-2.34 1.12-3.82 1.79-1.49.67-2.28.99-3.59 1.56-1.31.58-2 .84-2.95 1.32-.95.47-1.26.67-1.8 1.04-.54.38-.79.49-.92.81-.13.33-.05.64.26.82" stroke="#000" fill="#000"/>
  <path d="M593.98 394.04c.1-.36.05-.77-.27-1.28-.31-.52-.58-.85-1.31-1.31-.72-.46-1.2-.72-2.3-.98-1.11-.26-1.85-.38-3.23-.33-1.38.05-2.18.22-3.69.57-1.51.35-2.28.55-3.84 1.17-1.55.61-2.45.95-3.95 1.89-1.49.94-2.29 1.55-3.52 2.8-1.23 1.25-1.75 2.02-2.62 3.46-.88 1.44-1.3 2.21-1.76 3.73-.46 1.52-.63 2.36-.54 3.86.09 1.49.33 2.32.99 3.62.67 1.3 1.16 1.9 2.34 2.87 1.17.98 1.92 1.4 3.53 1.99 1.61.59 2.62.76 4.52.95 1.91.19 2.99.14 5.01.01 2.02-.14 3.06-.27 5.1-.7 2.05-.43 3.15-.7 5.12-1.45 1.96-.74 2.98-1.25 4.71-2.27s2.6-1.72 3.94-2.82c1.34-1.09 1.89-1.71 2.76-2.66.86-.95 1.36-1.56 1.57-2.09.21-.53.03-.72-.51-.56-.54.16-1.17.64-2.19 1.36-1.03.72-1.61 1.26-2.95 2.23-1.34.96-2.13 1.66-3.76 2.6-1.62.95-2.53 1.43-4.36 2.11-1.83.69-2.87.95-4.78 1.33-1.92.39-2.91.49-4.8.6-1.89.11-2.9.11-4.64-.04-1.73-.15-2.62-.27-4.02-.71-1.4-.44-2.01-.75-2.98-1.48-.96-.73-1.32-1.18-1.83-2.18-.52-1-.7-1.63-.75-2.82-.04-1.18.09-1.85.52-3.12.42-1.26.81-1.96 1.6-3.21.8-1.25 1.26-1.94 2.37-3.03 1.1-1.1 1.8-1.61 3.14-2.43 1.35-.82 2.16-1.14 3.58-1.67s2.16-.71 3.52-.99c1.35-.28 2.08-.38 3.25-.41 1.18-.04 1.76.08 2.63.24.87.16 1.19.32 1.74.56.54.23.62.39.99.61.37.22.53.49.86.49.33-.01.7-.16.81-.51m12.63-25.14c-.24.19-.32.32-.45.9-.12.58-.19.94-.18 1.99.01 1.05.06 1.76.21 3.26.15 1.5.32 2.4.54 4.23.21 1.84.34 2.88.53 4.95.19 2.06.3 3.19.43 5.37s.14 3.32.22 5.52c.08 2.2.05 3.38.18 5.46.13 2.07.24 3.13.47 4.89.24 1.76.36 2.57.7 3.9.34 1.33.51 1.95 1.01 2.75s.9 1.09 1.49 1.26c.59.17.93.02 1.47-.41.53-.42.75-.84 1.18-1.73.43-.88.57-1.47.96-2.69s.69-1.94.99-3.41c.31-1.47.67-3.07.54-3.94-.13-.87-.56-1.02-1.18-.39-.62.63-1.34 2.14-1.93 3.53-.58 1.39-.67 2.21-1.01 3.44-.34 1.23-.53 1.82-.68 2.72-.14.89-.08 1.34-.06 1.75.02.41.19.48.14.31-.05-.16-.19-.41-.4-1.14-.2-.72-.39-1.22-.61-2.46-.23-1.24-.33-2.03-.5-3.73-.17-1.7-.25-2.74-.35-4.78-.09-2.03-.07-3.21-.13-5.4-.06-2.2-.07-3.37-.17-5.58-.11-2.2-.19-3.35-.34-5.44-.16-2.09-.27-3.16-.43-5.01-.16-1.84-.24-2.74-.39-4.23-.15-1.49-.15-2.2-.34-3.23-.18-1.04-.36-1.38-.59-1.93-.23-.54-.3-.64-.57-.78-.26-.15-.51-.14-.75.05m9.47 18.85c.41-.12.63-.56 1.19-1.07.57-.5.93-.8 1.65-1.45.72-.64 1.12-1.21 1.96-1.78.84-.57 1.3-.81 2.25-1.06.94-.25 1.45-.3 2.47-.19 1.02.11 1.6.26 2.62.73 1.01.47 1.49.77 2.46 1.64.97.87 1.45 1.44 2.38 2.69.93 1.25 1.44 2.01 2.28 3.56.83 1.56 1.24 2.45 1.91 4.2.68 1.75 1.01 2.75 1.48 4.56.47 1.82.59 2.73.87 4.51.28 1.79.33 2.77.53 4.42.21 1.66.31 2.51.49 3.85.19 1.34.21 1.88.45 2.87.24.98.5 1.44.77 2.07.27.62.35.86.6 1.05.24.19.45.17.61-.11.17-.27.23-.6.2-1.27s-.22-1.12-.34-2.09c-.12-.97-.15-1.43-.27-2.75-.12-1.32-.15-2.19-.33-3.87-.17-1.67-.25-2.66-.53-4.5-.28-1.85-.4-2.81-.87-4.73-.47-1.91-.77-2.97-1.47-4.84-.7-1.87-1.13-2.82-2.03-4.49-.91-1.66-1.45-2.48-2.5-3.84-1.06-1.36-1.62-1.98-2.78-2.96-1.16-.98-1.76-1.37-3.02-1.93-1.26-.56-1.99-.74-3.28-.88-1.3-.15-1.94-.09-3.19.16-1.25.26-1.97.47-3.07 1.1-1.09.64-1.62 1.26-2.4 2.09-.79.82-1.14 1.26-1.52 2.03-.38.77-.49 1.36-.4 1.82.09.45.43.58.83.46m84.13.33c-.28.06-.51.16-.69.54-.18.38-.2.7-.2 1.34-.01.65.06.93.17 1.89.1.96.19 1.55.36 2.92.17 1.37.25 2.27.5 3.94.26 1.67.44 2.64.76 4.4.32 1.76.47 2.7.84 4.4.38 1.7.57 2.61 1.02 4.11.45 1.51.67 2.3 1.22 3.44.55 1.14.84 1.65 1.51 2.26.67.62 1.09.79 1.84.82.76.03 1.18-.12 1.93-.67.75-.54 1.14-1.01 1.82-2.06.69-1.06.95-1.81 1.61-3.22.66-1.4.99-2.29 1.68-3.82.7-1.53 1.15-2.4 1.8-3.83.65-1.43 1.02-2.31 1.47-3.33.44-1.02.57-1.41.75-1.77.17-.36.05-.37.11-.03.07.35.05.77.19 1.76.15.98.18 1.75.53 3.17.36 1.41.67 2.36 1.22 3.91.56 1.55.85 2.42 1.54 3.86.69 1.43 1.07 2.15 1.9 3.3.84 1.15 1.27 1.68 2.26 2.47.99.78 1.53 1.14 2.68 1.44 1.14.31 1.84.33 3.04.08s1.78-.55 2.94-1.32c1.17-.77 1.77-1.29 2.88-2.52 1.11-1.24 1.72-2.07 2.67-3.67s1.34-2.57 2.08-4.35c.74-1.78 1.1-2.76 1.63-4.55.52-1.79.74-2.8.99-4.41.24-1.61.25-2.41.24-3.65-.01-1.25-.14-1.8-.29-2.57-.15-.77-.25-1.03-.46-1.29-.2-.25-.38-.24-.57.02-.19.26-.25.54-.39 1.28-.13.75-.16 1.28-.29 2.45-.14 1.17-.11 1.89-.39 3.39-.28 1.5-.5 2.43-1.03 4.11-.53 1.68-.9 2.63-1.62 4.3-.72 1.66-1.11 2.55-1.99 4.03-.88 1.48-1.44 2.21-2.39 3.35-.94 1.13-1.43 1.61-2.33 2.31-.89.71-1.29.95-2.13 1.19-.85.24-1.3.24-2.1.02-.81-.22-1.2-.47-1.94-1.12-.73-.66-1.1-1.11-1.76-2.16-.65-1.04-.97-1.71-1.51-3.06-.54-1.36-.75-2.21-1.18-3.72-.43-1.52-.58-2.45-.98-3.85-.41-1.41-.53-2.18-1.05-3.18s-.92-1.43-1.56-1.81c-.64-.39-.94-.41-1.64-.1-.71.31-1.12.64-1.86 1.63-.74.98-1.11 1.88-1.86 3.31-.75 1.43-1.16 2.31-1.9 3.83-.73 1.53-1.15 2.41-1.78 3.79-.63 1.38-.91 2.09-1.38 3.11-.47 1.03-.66 1.45-.97 2-.31.54-.35.71-.6.73-.25.03-.35-.09-.65-.62-.3-.52-.48-.96-.84-2.02-.36-1.05-.59-1.8-.96-3.25-.38-1.44-.59-2.32-.91-3.98-.32-1.66-.43-2.59-.69-4.33-.25-1.74-.36-2.71-.57-4.37-.21-1.66-.29-2.56-.48-3.93-.19-1.36-.32-1.97-.48-2.91-.15-.94-.16-1.23-.29-1.79-.13-.57-.21-.75-.36-1.03-.16-.28-.18-.27-.4-.39-.23-.13-.43-.29-.71-.22m54.66 7.73c-.28.24-.37.5-.54 1.19-.17.69-.27 1.14-.31 2.24-.04 1.11.05 1.89.11 3.29.06 1.4.12 2.19.2 3.72.09 1.53.11 2.39.22 3.94.1 1.55.13 2.41.29 3.82.16 1.41.25 2.14.51 3.24s.4 1.66.8 2.27c.4.62.73.84 1.19.8.47-.03.82-.25 1.14-.98.32-.73.42-1.35.47-2.67.05-1.32-.08-2.28-.22-3.94-.14-1.67-.34-2.66-.49-4.37-.15-1.7-.26-2.57-.27-4.16-.01-1.59.04-2.42.24-3.77.19-1.36.33-1.98.74-3.02.42-1.04.7-1.46 1.33-2.2.63-.73.98-1.06 1.82-1.46.85-.4 1.3-.45 2.38-.54 1.08-.08 1.78-.01 3.04.1 1.27.12 1.94.21 3.28.48 1.35.27 2.18.5 3.44.85 1.26.36 1.87.66 2.88.91 1.01.24 1.66.41 2.16.34.49-.08.59-.31.3-.72s-.83-.77-1.75-1.33c-.93-.55-1.55-.97-2.87-1.45-1.31-.48-2.25-.67-3.7-.95-1.46-.27-2.17-.35-3.57-.42-1.41-.08-2.17-.15-3.47.04-1.29.2-1.93.36-3.01.94-1.08.58-1.57 1.02-2.38 1.96-.82.93-1.14 1.47-1.68 2.69-.54 1.23-.73 1.93-1.02 3.43-.28 1.5-.34 2.39-.41 4.08-.07 1.68.01 2.58.05 4.34.03 1.75.05 2.75.13 4.41.08 1.66.11 2.62.27 3.88.17 1.27.33 1.81.56 2.44.23.62.43.74.61.7.19-.03.3-.27.31-.88.02-.61-.1-1.11-.22-2.16-.11-1.05-.24-1.74-.35-3.1-.1-1.36-.13-2.2-.19-3.72s-.07-2.37-.09-3.9c-.02-1.52.05-2.33.01-3.73-.04-1.41-.08-2.2-.2-3.29-.12-1.09-.22-1.5-.4-2.17-.18-.66-.23-.92-.5-1.16-.27-.23-.57-.24-.84-.01m35 1.44c-.23.2-.22.32-.37.84s-.3.84-.39 1.77c-.09.92-.08 1.61-.07 2.85.02 1.23.13 1.89.15 3.32.02 1.43-.04 2.25-.05 3.82-.01 1.58-.04 2.49-.01 4.06.03 1.57-.06 2.52.17 3.79.22 1.28.48 1.93.96 2.6.48.68.88.68 1.43.78.55.1.94-.01 1.33-.26.39-.25.68-.64.63-.99-.04-.34-.55-.7-.86-.75-.31-.04-.5.34-.69.55-.2.2-.17.46-.27.47-.1.01-.15.11-.22-.41-.06-.53-.09-1.04-.1-2.2-.01-1.16.04-2.07.05-3.6.01-1.52-.01-2.44.01-4.01.01-1.58.06-2.41.09-3.84.02-1.44.02-2.11.03-3.34.02-1.23.11-1.87.03-2.81-.07-.95-.17-1.35-.39-1.91-.21-.55-.38-.73-.68-.87-.29-.15-.55-.05-.78.14m1.72-18.78c.23.18.36.1.38.2.02.1-.25.31-.27.3-.03-.01.06-.01.16-.37s.41-1.03.34-1.43a.677.677 0 00-.68-.58c-.29.01-.61.37-.76.61-.14.23-.11.31.05.57.17.25.54.52.78.7m21.97-6.42c-.19.17-.19.18-.28.6-.09.42-.17.63-.18 1.49-.01.87.07 1.4.14 2.82s.19 2.35.19 4.27c.01 1.93-.14 3.09-.18 5.35-.04 2.27.03 3.54-.01 5.99-.04 2.44-.15 3.72-.2 6.23-.05 2.5-.08 3.84-.07 6.29.02 2.44.06 3.66.15 5.94.08 2.27.13 3.48.28 5.42.15 1.94.24 2.88.47 4.27.22 1.39.4 1.99.65 2.67.25.68.41.83.59.72.18-.1.29-.55.31-1.23.02-.67.12-1.33-.22-2.13-.34-.79-.92-1.55-1.46-1.84-.54-.28-.98-.15-1.24.41-.27.55-.32 1.51-.09 2.37.22.87.67 1.4 1.2 1.95.53.56 1 .88 1.46.81.46-.07.67-.36.83-1.15.15-.78.02-1.39-.06-2.79-.07-1.4-.2-2.29-.3-4.2-.11-1.91-.16-3.11-.23-5.36-.06-2.24-.11-3.45-.11-5.87.01-2.42.05-3.73.13-6.22.08-2.49.19-3.79.27-6.23.08-2.44.05-3.7.15-5.97.09-2.28.29-3.43.33-5.41.03-1.97-.05-2.99-.17-4.46-.11-1.48-.21-2.02-.41-2.91-.21-.89-.35-1.13-.6-1.54-.25-.41-.4-.46-.67-.52-.26-.06-.48.07-.67.23" stroke="#000" fill="#000"/>
  <path d="M807.91 404.99c.33 0 .42-.2.98-.5s.9-.51 1.83-1c.93-.5 1.46-.91 2.81-1.48s2.27-.88 3.95-1.38c1.68-.51 2.68-.79 4.47-1.15 1.78-.35 2.73-.48 4.44-.63 1.7-.15 2.56-.2 4.07-.12 1.5.07 2.27.19 3.46.49s1.65.51 2.49 1.01c.84.49 1.14.8 1.69 1.44.55.64.78.97 1.06 1.76s.26 1.2.36 2.21c.1 1 .08 1.66.13 2.83.06 1.18.11 1.84.13 3.06.01 1.21-.06 1.85-.06 3.03.01 1.18-.01 1.84.08 2.86.08 1.03.17 1.48.35 2.26.19.78.32 1.15.58 1.66.26.5.44.66.71.86.26.19.43.14.6.1.17-.03.18-.15.25-.28.07-.12.08-.07.11-.33.03-.25.11-.44.04-.92-.07-.48-.28-.78-.38-1.47-.11-.69-.15-1.04-.16-1.98-.01-.94.05-1.56.1-2.72.04-1.16.12-1.83.12-3.08 0-1.26-.02-1.94-.1-3.18-.09-1.24-.12-1.88-.32-3.01-.21-1.14-.28-1.67-.72-2.64-.43-.98-.75-1.44-1.47-2.26-.72-.81-1.12-1.18-2.13-1.81-1.01-.62-1.57-.93-2.93-1.33-1.36-.41-2.21-.56-3.85-.69-1.65-.13-2.56-.08-4.38.03-1.81.1-2.81.19-4.7.5-1.89.31-2.93.54-4.74 1.03s-2.81.78-4.29 1.42c-1.48.64-2.13 1.09-3.11 1.8-.97.71-1.34 1.12-1.76 1.75-.43.63-.44 1-.38 1.38.06.37.34.48.67.48m33.24-19.45c.25 0 .39-.3.24-.49-.15-.19-.74-.47-.99-.47-.24 0-.38.3-.23.49s.74.48.98.47m16.82 15.71c-.25.21-.26.45-.38.96-.12.5-.18.77-.21 1.59-.03.81.06 1.36.06 2.5.01 1.14 0 1.84-.03 3.2s-.06 2.15-.12 3.6c-.05 1.45-.13 2.26-.16 3.63-.02 1.37-.04 2.07.05 3.22.08 1.15.11 1.78.37 2.53.26.76.55 1.15.93 1.24.38.1.66-.17.98-.76.31-.59.38-1.13.59-2.19.21-1.06.25-1.73.48-3.1.22-1.36.25-2.26.64-3.71.4-1.46.71-2.18 1.35-3.55.64-1.38 1.04-2.08 1.85-3.33s1.2-1.93 2.19-2.93c.99-1 1.62-1.39 2.77-2.08 1.14-.7 1.8-1.07 2.97-1.38 1.17-.3 1.75-.32 2.87-.14 1.12.17 1.72.46 2.75 1.02 1.04.55 1.52.87 2.42 1.76.9.89 1.34 1.5 2.08 2.68.75 1.17 1.15 1.89 1.63 3.2.49 1.3.58 1.98.79 3.33.21 1.35.15 2.12.26 3.41.11 1.29.14 1.96.3 3.04.15 1.09.23 1.6.46 2.36.24.76.43 1.18.71 1.45.29.26.53.21.71-.12.18-.33.15-.76.19-1.53.05-.77.06-1.27.02-2.34-.04-1.08-.12-1.71-.21-3.03-.1-1.32-.04-2.1-.26-3.57-.22-1.47-.31-2.29-.84-3.78-.53-1.49-.96-2.33-1.82-3.66-.87-1.34-1.43-2-2.53-3.01-1.09-1.01-1.67-1.39-2.95-2.04-1.27-.64-1.99-.98-3.41-1.19-1.41-.21-2.21-.19-3.66.15-1.45.34-2.23.74-3.58 1.53-1.36.79-2.06 1.29-3.2 2.42-1.13 1.13-1.57 1.89-2.49 3.24-.91 1.36-1.32 2.07-2.07 3.54-.75 1.47-1.13 2.26-1.66 3.82-.53 1.55-.72 2.5-1 3.96-.27 1.46-.37 2.18-.37 3.32 0 1.15.1 1.77.37 2.39.27.62.65.85.97.73.31-.12.48-.58.59-1.32.11-.75-.04-1.33-.03-2.43.01-1.1 0-1.74.08-3.07.07-1.32.19-2.13.3-3.57.11-1.44.18-2.25.26-3.64.07-1.4.15-2.15.12-3.34s-.15-1.78-.28-2.62c-.14-.84-.22-1.08-.41-1.57-.19-.49-.27-.74-.56-.9a.754.754 0 00-.88.08m58 8.78c.35-.1.66-.35.9-.86.23-.51.31-.91.29-1.68-.03-.77-.07-1.34-.43-2.18-.37-.85-.67-1.27-1.39-2.02-.71-.75-1.16-1.17-2.2-1.73-1.05-.57-1.73-.86-3.02-1.1-1.29-.24-2.04-.25-3.43-.12-1.4.14-2.19.31-3.53.8-1.34.49-2.01.82-3.18 1.64-1.16.81-1.74 1.32-2.65 2.42-.92 1.09-1.41 1.77-1.92 3.04-.51 1.28-.65 2.01-.63 3.32.02 1.31.21 2.06.74 3.24.53 1.18.97 1.76 1.92 2.64.95.89 1.58 1.25 2.84 1.77 1.25.52 2.03.71 3.43.83 1.4.12 2.15.06 3.57-.23 1.41-.29 2.21-.56 3.51-1.21 1.3-.65 1.95-1.1 2.98-2.03 1.02-.93 1.46-1.53 2.15-2.61.68-1.07.93-1.7 1.29-2.76.35-1.06.56-1.75.47-2.52-.08-.78-.5-1.21-.89-1.35-.4-.15-.79.01-1.09.63-.3.63-.39 1.17-.42 2.49-.02 1.31.02 2.23.29 4.08.26 1.86.58 2.99 1.04 5.18.46 2.18.8 3.4 1.26 5.77.46 2.38.68 3.62 1.05 6.09.37 2.48.57 3.78.82 6.28.25 2.5.35 3.83.41 6.21.07 2.37.06 3.55-.08 5.67-.15 2.12-.24 3.15-.63 4.93-.39 1.78-.63 2.6-1.34 3.96-.7 1.36-1.14 1.89-2.18 2.83-1.03.94-1.63 1.31-3 1.87s-2.21.73-3.85.94c-1.65.21-2.6.26-4.38.1-1.79-.16-2.78-.37-4.56-.89-1.77-.51-2.74-.87-4.32-1.7-1.57-.84-2.33-1.39-3.57-2.46-1.23-1.07-1.82-1.7-2.58-2.9-.76-1.21-1-1.77-1.21-3.11-.21-1.34-.02-2.18.16-3.6.18-1.41.5-2.24.75-3.49.25-1.26.56-2.15.5-2.76-.07-.62-.33-.76-.82-.33-.49.43-1.07 1.22-1.61 2.48s-.87 2.21-1.07 3.82c-.19 1.62-.23 2.63.09 4.24.32 1.6.63 2.34 1.51 3.79.87 1.45 1.5 2.2 2.86 3.45 1.36 1.25 2.21 1.86 3.94 2.82 1.73.95 2.78 1.36 4.72 1.94 1.95.59 3.04.82 5.01.98 1.98.17 3.04.12 4.89-.16 1.85-.29 2.8-.53 4.37-1.25 1.57-.72 2.27-1.22 3.49-2.36 1.21-1.13 1.75-1.79 2.58-3.34.84-1.55 1.13-2.48 1.6-4.41.47-1.93.57-3.01.76-5.23.19-2.22.22-3.43.18-5.88-.04-2.45-.13-3.82-.37-6.37-.23-2.56-.45-3.88-.8-6.4-.36-2.52-.56-3.78-.97-6.19-.41-2.4-.71-3.65-1.09-5.83-.38-2.18-.57-3.28-.81-5.07-.25-1.8-.21-2.66-.43-3.9-.21-1.23-.36-1.72-.65-2.27-.29-.56-.51-.59-.8-.49-.28.09-.37.35-.63.94-.27.59-.35 1.15-.69 2.03-.33.88-.44 1.47-1 2.37-.56.89-.93 1.36-1.8 2.12-.86.75-1.42 1.11-2.52 1.64-1.1.53-1.79.78-2.97 1.02-1.19.25-1.79.3-2.94.21-1.15-.08-1.79-.26-2.8-.64-1.01-.39-1.51-.64-2.25-1.29-.74-.64-1.04-1.07-1.45-1.94-.4-.87-.56-1.44-.57-2.41 0-.98.11-1.49.55-2.47.43-.99.87-1.55 1.64-2.44.77-.9 1.24-1.39 2.22-2.06.97-.67 1.54-.92 2.67-1.3 1.14-.39 1.84-.51 3-.61 1.16-.1 1.76-.08 2.79.11s1.55.42 2.36.84c.8.41 1.18.72 1.67 1.23s.58.75.77 1.33c.18.57.04 1.01.14 1.55.09.55.22.77.32 1.16.1.39-.02.56.18.79.2.23.49.46.84.36m73.33-13.97c-.15-.39-.46-.78-1.14-1.13-.69-.36-1.23-.51-2.3-.64-1.07-.13-1.79-.17-3.06.01-1.27.17-1.98.42-3.29.86s-2 .72-3.25 1.33c-1.25.61-1.99.93-2.99 1.72-1.01.79-1.5 1.28-2.03 2.23-.52.94-.72 1.5-.62 2.5.11 1.01.35 1.58 1.15 2.52.8.94 1.5 1.39 2.86 2.17 1.35.78 2.21 1.09 3.91 1.74 1.71.64 2.73.91 4.61 1.5 1.89.6 2.98.87 4.83 1.47 1.84.6 2.78.89 4.39 1.53 1.61.64 2.37.95 3.66 1.68 1.28.72 1.88 1.18 2.76 1.94.89.76 1.25 1.16 1.66 1.85.42.69.5.95.42 1.59-.08.64-.25.96-.81 1.62-.55.65-.98 1-1.94 1.66-.97.65-1.6 1-2.89 1.6-1.3.6-2.06.9-3.58 1.41-1.53.52-2.43.84-4.06 1.17-1.63.33-2.46.41-4.09.47-1.63.07-2.51.02-4.06-.15-1.54-.16-2.32-.3-3.67-.69-1.35-.38-2.02-.6-3.07-1.21-1.06-.61-1.54-1.08-2.19-1.84-.65-.75-.69-1.07-1.05-1.94-.36-.88-.41-1.98-.76-2.44-.36-.45-.83-.45-1.03.15-.21.6-.27 1.77 0 2.86.27 1.09.55 1.61 1.34 2.6.79 1 1.37 1.62 2.61 2.39 1.23.77 2.04 1.02 3.56 1.47 1.51.46 2.33.61 4.01.81 1.68.21 2.62.26 4.38.22 1.77-.04 2.68-.11 4.45-.43s2.73-.63 4.38-1.17c1.65-.54 2.43-.84 3.85-1.51 1.42-.68 2.16-1.02 3.25-1.87 1.1-.86 1.62-1.4 2.23-2.41.61-1 .76-1.6.81-2.64.06-1.04-.06-1.53-.54-2.54-.48-1-.88-1.54-1.87-2.5-.98-.95-1.67-1.43-3.06-2.26-1.38-.84-2.2-1.17-3.87-1.9-1.67-.72-2.61-1.07-4.47-1.73-1.86-.66-2.96-.97-4.82-1.59-1.86-.62-2.85-.9-4.48-1.51-1.62-.62-2.4-.96-3.65-1.57-1.24-.6-1.86-.92-2.59-1.46-.72-.54-.93-.74-1.02-1.25-.08-.51.12-.75.59-1.29.48-.55.89-.88 1.79-1.45.89-.56 1.57-.87 2.71-1.38 1.14-.51 1.82-.8 2.99-1.17 1.18-.36 1.8-.52 2.89-.66 1.08-.14 1.66-.04 2.55-.03.9 0 1.29.04 1.93.06.64.02.95.2 1.28.05.34-.16.55-.43.4-.82m21.84-23.07c-.21.2-.24.3-.31.83s-.12.84-.04 1.8c.08.96.19 1.59.44 3 .24 1.41.53 2.29.79 4.06.26 1.77.32 2.71.49 4.79.18 2.08.22 3.26.38 5.6.16 2.33.29 3.67.43 6.1.14 2.43.14 3.64.25 6.03.11 2.39.14 3.64.3 5.92.16 2.27.33 3.45.52 5.46.19 2 .25 2.9.43 4.55s.26 2.45.48 3.71c.23 1.26.4 1.86.64 2.6s.45.88.56 1.11c.11.23-.01-.01 0 .05.02.06-.07.24.09.26.15.01.47.16.68-.18.21-.33.38-.68.37-1.5 0-.83-.24-1.39-.4-2.64-.16-1.25-.26-1.98-.41-3.61-.14-1.63-.16-2.54-.32-4.54-.15-1.99-.3-3.17-.44-5.42-.14-2.26-.18-3.48-.26-5.86-.09-2.38-.06-3.62-.16-6.06-.11-2.44-.23-3.79-.38-6.14-.15-2.35-.21-3.51-.36-5.62-.15-2.11-.17-3.11-.37-4.94-.21-1.83-.41-2.76-.66-4.2-.26-1.44-.37-2.04-.63-2.98-.27-.94-.43-1.23-.71-1.71-.27-.47-.39-.56-.67-.65-.28-.1-.53-.02-.73.18" stroke="#000" fill="#000"/>
  <path d="M999.17 406.23c.26.17.39.18 1.09.18.69-.01 1.15-.08 2.38-.21 1.23-.14 2-.28 3.77-.46 1.77-.17 2.96-.27 5.09-.42 2.14-.15 3.4-.21 5.6-.32 2.19-.11 3.44-.22 5.38-.22s2.76.05 4.31.2c1.55.16 2.32.28 3.46.57 1.14.28 1.51.58 2.22.87.72.3.96.41 1.36.59.41.19.45.33.66.33.22 0 .39-.07.41-.32.03-.24.03-.5-.29-.93-.33-.43-.56-.74-1.33-1.22s-1.27-.78-2.52-1.16c-1.25-.38-2.08-.51-3.73-.74-1.65-.22-2.5-.31-4.5-.4-2-.09-3.27-.06-5.51-.03-2.24.03-3.49.07-5.67.17-2.17.1-3.38.13-5.22.33-1.83.19-2.68.32-3.95.64-1.27.33-1.76.62-2.41.98-.65.37-.73.55-.85.86-.12.32-.02.53.25.71m44.08.53c-.3.23-.43.54-.61 1.21-.19.66-.24 1.11-.3 2.13-.07 1.01-.01 1.59-.01 2.94 0 1.35-.03 2.23 0 3.83.04 1.59.1 2.49.18 4.15.08 1.65.12 2.65.24 4.11.11 1.45.12 2.24.34 3.16.21.91.41 1.32.74 1.42.32.09.67-.19.86-.94.2-.75.17-1.5.11-2.82-.06-1.33-.25-2.19-.41-3.81-.16-1.62-.25-2.66-.4-4.3-.15-1.64-.33-2.49-.36-3.91-.04-1.42.01-2.02.17-3.2.17-1.18.31-1.8.65-2.71.34-.91.45-1.25 1.05-1.84.61-.58 1.06-.72 1.98-1.1.92-.39 1.45-.6 2.62-.81 1.17-.2 1.98-.22 3.22-.22 1.24 0 1.76 0 2.98.22 1.22.23 2.04.58 3.13.92 1.1.34 1.46.51 2.35.8.89.3 1.59.69 2.1.67.51-.02.7-.3.44-.76-.26-.46-.9-.99-1.73-1.55-.82-.55-1.24-.77-2.42-1.24-1.17-.46-2.07-.81-3.44-1.09-1.36-.27-1.98-.26-3.39-.27-1.42-.02-2.34-.1-3.69.19-1.36.29-1.98.66-3.08 1.25-1.09.59-1.62.86-2.4 1.69-.78.82-1.03 1.31-1.5 2.42-.48 1.11-.62 1.79-.85 3.11-.24 1.32-.28 1.99-.34 3.5s.02 2.37.03 4.06c.02 1.69-.06 2.74.05 4.41.12 1.67.23 2.62.53 3.94.3 1.33.59 1.99.99 2.68.4.68.64.9 1.01.76s.63-.53.85-1.48c.21-.94.19-1.76.2-3.24.01-1.47-.11-2.49-.16-4.13-.06-1.64-.1-2.5-.11-4.08-.01-1.58.08-2.46.06-3.81-.02-1.35-.09-1.94-.16-2.94-.07-.99-.07-1.38-.2-2.03-.13-.65-.17-.96-.44-1.22-.26-.26-.58-.29-.88-.07m28.3 11.44c.38.22.82.24 1.73.23.91 0 1.52-.02 2.81-.26 1.3-.23 2.2-.44 3.66-.91 1.45-.47 2.26-.82 3.64-1.43 1.37-.61 2.03-.93 3.24-1.62 1.21-.7 1.83-1.08 2.79-1.85.97-.76 1.47-1.14 2.03-1.99.56-.84.68-1.35.76-2.21.08-.86.05-1.32-.35-2.1-.4-.78-.7-1.24-1.62-1.8-.92-.56-1.65-.82-2.98-1.02-1.34-.2-2.12-.16-3.7.03-1.57.19-2.48.36-4.17.91-1.7.54-2.65.92-4.3 1.8-1.64.89-2.48 1.44-3.92 2.63-1.45 1.19-2.21 1.95-3.29 3.34-1.09 1.38-1.54 2.19-2.15 3.59-.61 1.41-.84 2.09-.88 3.42-.05 1.33.09 2.01.68 3.25.59 1.24 1.02 1.87 2.26 2.94 1.23 1.07 2.16 1.62 3.92 2.41 1.76.79 2.75 1.13 4.88 1.54 2.13.42 3.41.51 5.78.52 2.37 0 3.6-.15 6.06-.49 2.46-.33 3.83-.61 6.25-1.2 2.42-.6 3.63-.96 5.86-1.76 2.22-.8 3.39-1.29 5.28-2.26 1.89-.96 2.78-1.43 4.18-2.56 1.4-1.14 2.36-2.34 2.8-3.1.44-.76.17-1.01-.61-.69-.77.31-1.81 1.37-3.27 2.26-1.46.89-2.21 1.34-4.03 2.19-1.83.85-2.94 1.32-5.09 2.06-2.15.75-3.32 1.09-5.65 1.64-2.34.56-3.68.81-6.03 1.13-2.35.31-3.53.46-5.74.45-2.22-.01-3.39-.12-5.33-.51-1.95-.38-2.81-.73-4.38-1.4-1.57-.67-2.4-1.16-3.5-1.96-1.1-.81-1.49-1.19-2-2.06-.5-.87-.61-1.32-.53-2.31.08-.99.33-1.5.93-2.64.59-1.14 1.03-1.86 2.04-3.07 1-1.2 1.68-1.91 3-2.97 1.31-1.06 2.07-1.55 3.57-2.33 1.5-.77 2.4-1.09 3.93-1.56 1.53-.47 2.37-.61 3.74-.78 1.38-.16 2.03-.14 3.12-.04 1.08.09 1.61.26 2.3.51.69.25.88.38 1.14.73.26.36.25.58.17 1.05-.09.47-.13.76-.61 1.31-.49.55-.93.81-1.8 1.42-.88.61-1.46 1.02-2.59 1.62-1.13.59-1.76.87-3.08 1.36-1.32.48-2.12.67-3.52 1.06-1.4.4-2.26.56-3.48.92-1.22.35-1.78.52-2.6.85-.82.34-1.24.49-1.51.83-.27.34-.22.65.16.88" stroke="#000" fill="#000"/>
  <path d="M1125.85 404.35c.07-.36.07-.78-.36-1.3-.42-.51-.83-.91-1.78-1.28-.95-.37-1.67-.53-2.97-.56-1.29-.02-2.07.1-3.5.42-1.43.33-2.24.66-3.64 1.2-1.41.54-2.13.81-3.39 1.48-1.27.68-2 1.06-2.92 1.89-.93.82-1.35 1.35-1.72 2.26-.36.9-.36 1.37-.09 2.26.27.89.58 1.41 1.46 2.18.89.77 1.55 1.1 2.96 1.68 1.41.59 2.31.73 4.09 1.25 1.79.51 2.85.78 4.83 1.32 1.98.53 3.1.79 5.07 1.35 1.96.57 3.05.9 4.76 1.49 1.71.58 2.58.89 3.8 1.43 1.21.54 1.68.84 2.3 1.26.62.42.8.51.78.84-.03.32-.33.44-.9.79-.58.36-.99.59-1.98 1-.99.4-1.58.64-2.97 1.01-1.4.38-2.29.54-4.01.84-1.72.3-2.76.48-4.59.67-1.83.19-2.85.22-4.55.29-1.71.06-2.6.03-3.98.03-1.37.01-2.07.01-2.89-.01-.82-.02-1.06-.01-1.2-.09-.14-.08-.02-.05.5-.31.51-.27.95-.44 2.1-1.02a97.2 97.2 0 003.61-1.88c1.44-.78 2.37-1.23 3.58-2.03 1.21-.8 2.06-1.41 2.47-1.96.42-.55.31-.77-.38-.79-.68-.02-1.63.29-3.03.71-1.41.41-2.46.63-4.01 1.37-1.56.74-2.65 1.4-3.75 2.33-1.11.92-1.41 1.48-1.78 2.3-.37.81-.38 1.17-.08 1.78.31.61.66.92 1.62 1.27.95.35 1.71.36 3.16.47 1.45.12 2.34.12 4.11.12 1.76-.01 2.81 0 4.72-.16 1.9-.15 2.99-.31 4.8-.61 1.81-.31 2.73-.47 4.25-.91 1.52-.44 2.22-.67 3.34-1.29 1.11-.61 1.62-1 2.23-1.79.61-.78.84-1.31.82-2.13-.02-.82-.25-1.2-.93-1.98s-1.17-1.18-2.45-1.91c-1.28-.74-2.18-1.08-3.94-1.76-1.75-.68-2.86-1.02-4.85-1.64-1.98-.63-3.1-.9-5.08-1.47-1.97-.57-3.05-.89-4.79-1.39-1.75-.49-2.62-.68-3.93-1.11-1.31-.43-1.84-.62-2.62-1.04-.78-.42-1.03-.64-1.26-1.04-.23-.41-.22-.52.12-.99.34-.46.74-.77 1.58-1.33.85-.57 1.49-.94 2.65-1.49 1.17-.56 1.88-.83 3.18-1.28 1.31-.46 2.1-.75 3.35-1 1.25-.26 1.88-.3 2.93-.29 1.04.02 1.56.22 2.29.36.74.14.97.22 1.4.35.43.14.47.36.76.33.29-.04.64-.14.7-.49" stroke="#000" fill="#000"/>
  <path d="M1164.06 402.78c.13-.32.26-.72-.07-1.25-.32-.52-.74-.95-1.55-1.36-.81-.41-1.33-.53-2.47-.68-1.15-.16-1.85-.21-3.25-.09-1.41.11-2.25.29-3.77.67-1.52.38-2.37.63-3.83 1.21-1.45.58-2.24.91-3.46 1.69-1.22.78-1.85 1.23-2.64 2.21-.8.97-1.14 1.53-1.32 2.65-.18 1.11-.11 1.79.42 2.93.53 1.14 1.04 1.75 2.21 2.77 1.16 1.02 1.97 1.44 3.62 2.35 1.64.9 2.69 1.35 4.6 2.17 1.91.82 3.08 1.21 4.96 1.91 1.88.71 2.88.96 4.44 1.63 1.56.66 2.32 1.06 3.36 1.69 1.03.62 1.43.93 1.8 1.43.38.5.33.65.08 1.07-.25.42-.51.63-1.34 1.04-.83.4-1.49.61-2.81.98a35.9 35.9 0 01-3.81.91c-1.69.32-2.71.51-4.64.71-1.93.2-3 .26-4.99.28-2 .03-3.1-.05-5-.15-1.9-.1-2.87-.16-4.53-.36-1.66-.21-2.45-.33-3.77-.66-1.33-.33-1.93-.59-2.86-.99-.92-.39-1.27-.71-1.78-.99-.51-.27-.59-.24-.78-.36-.18-.13-.03-.2-.13-.26-.11-.06-.28-.18-.41-.05-.13.13-.32.29-.26.68.06.39.05.71.55 1.26.51.55.94.96 1.97 1.5 1.03.53 1.74.78 3.18 1.18 1.43.4 2.27.54 4.01.8 1.73.26 2.7.34 4.66.49 1.97.15 3.08.25 5.16.26 2.07.01 3.2-.04 5.21-.22 2.02-.18 3.07-.35 4.87-.67 1.79-.33 2.65-.46 4.11-.98 1.46-.52 2.27-.84 3.21-1.62.94-.77 1.23-1.34 1.51-2.26.27-.91.28-1.38-.13-2.3-.42-.92-.86-1.43-1.96-2.31-1.11-.88-1.96-1.32-3.57-2.1-1.61-.79-2.61-1.07-4.48-1.84-1.86-.77-2.98-1.19-4.83-2.01-1.86-.81-2.88-1.26-4.43-2.06-1.56-.8-2.3-1.17-3.36-1.94-1.06-.76-1.48-1.16-1.96-1.88-.48-.73-.57-1.07-.45-1.75.13-.67.41-.98 1.09-1.63.69-.65 1.24-1.02 2.34-1.62 1.1-.59 1.82-.89 3.18-1.36 1.35-.47 2.18-.68 3.57-1 1.4-.32 2.18-.5 3.4-.61 1.22-.11 1.81-.04 2.72.07.91.11 1.22.29 1.83.47.61.19.84.34 1.21.48.37.14.36.25.64.22.27-.02.6-.03.73-.35" stroke="#000" fill="#000"/>
</svg>
